<?xml version="1.0" encoding="us-ascii" standalone="no"?><svg xmlns="http://www.w3.org/2000/svg" xmlns:xlink="http://www.w3.org/1999/xlink" contentStyleType="text/css" height="863px" preserveAspectRatio="none" style="width:1867px;height:863px;background:#FFFFFF;" version="1.1" viewBox="0 0 1867 863" width="1867px" zoomAndPan="magnify"><defs/><g><g id="elem_aggregated_result"><rect fill="#DDFFFF" height="44.9766" style="stroke:#181818;stroke-width:0.5;" width="200" x="76" y="7"/><text fill="#000000" font-family="sans-serif" font-size="14" lengthAdjust="spacing" textLength="186" x="83" y="22.5352">AggregatedResultMetadata</text><line style="stroke:#181818;stroke-width:0.5;" x1="77" x2="275" y1="27.4883" y2="27.4883"/><text fill="#000000" font-family="sans-serif" font-size="14" lengthAdjust="spacing" textLength="163" x="82" y="45.0234">id = "aggregatedResult"</text></g><g id="elem_tests_hook_nesting_js"><rect fill="#DDEEFF" height="36.4883" style="stroke:#181818;stroke-width:0.5;" width="104" x="124" y="129"/><text fill="#000000" font-family="sans-serif" font-size="14" lengthAdjust="spacing" textLength="90" x="131" y="144.5352">RunMetadata</text><line style="stroke:#181818;stroke-width:0.5;" x1="125" x2="227" y1="149.4883" y2="149.4883"/></g><g id="elem_tests_hook_nesting_js_describe_0"><rect fill="#DDEEDD" height="44.9766" style="stroke:#181818;stroke-width:0.5;" width="172" x="90" y="242"/><text fill="#000000" font-family="sans-serif" font-size="14" lengthAdjust="spacing" textLength="158" x="97" y="257.5352">DescribeBlockMetadata</text><line style="stroke:#181818;stroke-width:0.5;" x1="91" x2="261" y1="262.4883" y2="262.4883"/><text fill="#000000" font-family="sans-serif" font-size="14" lengthAdjust="spacing" textLength="116" x="96" y="280.0234">id = "describe_0"</text></g><g id="elem_tests_hook_nesting_js_hook_0"><rect fill="#FFDDDD" height="61.4648" style="stroke:#181818;stroke-width:0.5;" width="186" x="7" y="665.5"/><text fill="#000000" font-family="sans-serif" font-size="14" lengthAdjust="spacing" textLength="166" x="17" y="681.0352">HookDefinitionMetadata</text><line style="stroke:#181818;stroke-width:0.5;" x1="8" x2="192" y1="685.9883" y2="685.9883"/><text fill="#000000" font-family="sans-serif" font-size="14" lengthAdjust="spacing" textLength="93" x="13" y="703.5234">id = "hook_0"</text><text fill="#000000" font-family="sans-serif" font-size="14" lengthAdjust="spacing" textLength="174" x="13" y="720.0117">hookType = "beforeEach"</text></g><g id="elem_tests_hook_nesting_js_describe_1"><rect fill="#DDEEDD" height="61.4648" style="stroke:#181818;stroke-width:0.5;" width="899" x="477.5" y="364"/><text fill="#000000" font-family="sans-serif" font-size="14" lengthAdjust="spacing" textLength="158" x="848" y="379.5352">DescribeBlockMetadata</text><line style="stroke:#181818;stroke-width:0.5;" x1="478.5" x2="1375.5" y1="384.4883" y2="384.4883"/><text fill="#000000" font-family="sans-serif" font-size="14" lengthAdjust="spacing" textLength="116" x="483.5" y="402.0234">id = "describe_1"</text><text fill="#000000" font-family="sans-serif" font-size="14" lengthAdjust="spacing" textLength="887" x="483.5" y="418.5117">data = {"vendor":{"maintainer":{"name":"Jane Smith","email":"jane.smith@example.com"},"description":"This is a sample test suite."}}</text></g><g id="elem_tests_hook_nesting_js_hook_1"><rect fill="#FFDDDD" height="77.9531" style="stroke:#181818;stroke-width:0.5;" width="414" x="1214" y="502"/><text fill="#000000" font-family="sans-serif" font-size="14" lengthAdjust="spacing" textLength="166" x="1338" y="517.5352">HookDefinitionMetadata</text><line style="stroke:#181818;stroke-width:0.5;" x1="1215" x2="1627" y1="522.4883" y2="522.4883"/><text fill="#000000" font-family="sans-serif" font-size="14" lengthAdjust="spacing" textLength="93" x="1220" y="540.0234">id = "hook_1"</text><text fill="#000000" font-family="sans-serif" font-size="14" lengthAdjust="spacing" textLength="402" x="1220" y="556.5117">data = {"vendor":{"description":"Prepare the environment"}}</text><text fill="#000000" font-family="sans-serif" font-size="14" lengthAdjust="spacing" textLength="160" x="1220" y="573">hookType = "beforeAll"</text></g><g id="elem_tests_hook_nesting_js_hook_2"><rect fill="#FFDDDD" height="77.9531" style="stroke:#181818;stroke-width:0.5;" width="355" x="1050.5" y="657"/><text fill="#000000" font-family="sans-serif" font-size="14" lengthAdjust="spacing" textLength="166" x="1145" y="672.5352">HookDefinitionMetadata</text><line style="stroke:#181818;stroke-width:0.5;" x1="1051.5" x2="1404.5" y1="677.4883" y2="677.4883"/><text fill="#000000" font-family="sans-serif" font-size="14" lengthAdjust="spacing" textLength="93" x="1056.5" y="695.0234">id = "hook_2"</text><text fill="#000000" font-family="sans-serif" font-size="14" lengthAdjust="spacing" textLength="343" x="1056.5" y="711.5117">data = {"vendor":{"description":"Visit the website"}}</text><text fill="#000000" font-family="sans-serif" font-size="14" lengthAdjust="spacing" textLength="174" x="1056.5" y="728">hookType = "beforeEach"</text></g><g id="elem_tests_hook_nesting_js_hook_3"><rect fill="#FFDDDD" height="77.9531" style="stroke:#181818;stroke-width:0.5;" width="355" x="660.5" y="657"/><text fill="#000000" font-family="sans-serif" font-size="14" lengthAdjust="spacing" textLength="166" x="755" y="672.5352">HookDefinitionMetadata</text><line style="stroke:#181818;stroke-width:0.5;" x1="661.5" x2="1014.5" y1="677.4883" y2="677.4883"/><text fill="#000000" font-family="sans-serif" font-size="14" lengthAdjust="spacing" textLength="93" x="666.5" y="695.0234">id = "hook_3"</text><text fill="#000000" font-family="sans-serif" font-size="14" lengthAdjust="spacing" textLength="343" x="666.5" y="711.5117">data = {"vendor":{"description":"Visit the website"}}</text><text fill="#000000" font-family="sans-serif" font-size="14" lengthAdjust="spacing" textLength="161" x="666.5" y="728">hookType = "afterEach"</text></g><g id="elem_tests_hook_nesting_js_hook_4"><rect fill="#FFDDDD" height="77.9531" style="stroke:#181818;stroke-width:0.5;" width="434" x="423" y="502"/><text fill="#000000" font-family="sans-serif" font-size="14" lengthAdjust="spacing" textLength="166" x="557" y="517.5352">HookDefinitionMetadata</text><line style="stroke:#181818;stroke-width:0.5;" x1="424" x2="856" y1="522.4883" y2="522.4883"/><text fill="#000000" font-family="sans-serif" font-size="14" lengthAdjust="spacing" textLength="93" x="429" y="540.0234">id = "hook_4"</text><text fill="#000000" font-family="sans-serif" font-size="14" lengthAdjust="spacing" textLength="422" x="429" y="556.5117">data = {"vendor":{"description":"Tear down the environment"}}</text><text fill="#000000" font-family="sans-serif" font-size="14" lengthAdjust="spacing" textLength="147" x="429" y="573">hookType = "afterAll"</text></g><g id="elem_tests_hook_nesting_js_test_0"><rect fill="#FFFFDD" height="44.9766" style="stroke:#181818;stroke-width:0.5;" width="141" x="246.5" y="518.5"/><text fill="#000000" font-family="sans-serif" font-size="14" lengthAdjust="spacing" textLength="127" x="253.5" y="534.0352">TestEntryMetadata</text><line style="stroke:#181818;stroke-width:0.5;" x1="247.5" x2="386.5" y1="538.9883" y2="538.9883"/><text fill="#000000" font-family="sans-serif" font-size="14" lengthAdjust="spacing" textLength="83" x="252.5" y="556.5234">id = "test_0"</text></g><g id="elem_tests_hook_nesting_js_test_1"><rect fill="#FFFFDD" height="44.9766" style="stroke:#181818;stroke-width:0.5;" width="141" x="1670.5" y="518.5"/><text fill="#000000" font-family="sans-serif" font-size="14" lengthAdjust="spacing" textLength="127" x="1677.5" y="534.0352">TestEntryMetadata</text><line style="stroke:#181818;stroke-width:0.5;" x1="1671.5" x2="1810.5" y1="538.9883" y2="538.9883"/><text fill="#000000" font-family="sans-serif" font-size="14" lengthAdjust="spacing" textLength="83" x="1676.5" y="556.5234">id = "test_1"</text></g><g id="elem_tests_hook_nesting_js_hook_1_0"><rect fill="#FFCCBB" height="44.9766" style="stroke:#181818;stroke-width:0.5;" width="184" x="1441" y="673.5"/><text fill="#000000" font-family="sans-serif" font-size="14" lengthAdjust="spacing" textLength="170" x="1448" y="689.0352">HookInvocationMetadata</text><line style="stroke:#181818;stroke-width:0.5;" x1="1442" x2="1624" y1="693.9883" y2="693.9883"/><text fill="#000000" font-family="sans-serif" font-size="14" lengthAdjust="spacing" textLength="106" x="1447" y="711.5234">id = "hook_1.0"</text></g><g id="elem_tests_hook_nesting_js_test_0_0"><rect fill="#FFFFBB" height="44.9766" style="stroke:#181818;stroke-width:0.5;" width="177" x="228.5" y="673.5"/><text fill="#000000" font-family="sans-serif" font-size="14" lengthAdjust="spacing" textLength="163" x="235.5" y="689.0352">TestInvocationMetadata</text><line style="stroke:#181818;stroke-width:0.5;" x1="229.5" x2="404.5" y1="693.9883" y2="693.9883"/><text fill="#000000" font-family="sans-serif" font-size="14" lengthAdjust="spacing" textLength="96" x="234.5" y="711.5234">id = "test_0.0"</text></g><g id="elem_tests_hook_nesting_js_hook_0_0"><rect fill="#FFCCBB" height="44.9766" style="stroke:#181818;stroke-width:0.5;" width="184" x="28" y="812"/><text fill="#000000" font-family="sans-serif" font-size="14" lengthAdjust="spacing" textLength="170" x="35" y="827.5352">HookInvocationMetadata</text><line style="stroke:#181818;stroke-width:0.5;" x1="29" x2="211" y1="832.4883" y2="832.4883"/><text fill="#000000" font-family="sans-serif" font-size="14" lengthAdjust="spacing" textLength="106" x="34" y="850.0234">id = "hook_0.0"</text></g><g id="elem_tests_hook_nesting_js_hook_2_0"><rect fill="#FFCCBB" height="44.9766" style="stroke:#181818;stroke-width:0.5;" width="184" x="757" y="812"/><text fill="#000000" font-family="sans-serif" font-size="14" lengthAdjust="spacing" textLength="170" x="764" y="827.5352">HookInvocationMetadata</text><line style="stroke:#181818;stroke-width:0.5;" x1="758" x2="940" y1="832.4883" y2="832.4883"/><text fill="#000000" font-family="sans-serif" font-size="14" lengthAdjust="spacing" textLength="106" x="763" y="850.0234">id = "hook_2.0"</text></g><g id="elem_tests_hook_nesting_js_test_0_0_fn"><rect fill="#FFEEAA" height="44.9766" style="stroke:#181818;stroke-width:0.5;" width="194" x="249" y="812"/><text fill="#000000" font-family="sans-serif" font-size="14" lengthAdjust="spacing" textLength="180" x="256" y="827.5352">TestFnInvocationMetadata</text><line style="stroke:#181818;stroke-width:0.5;" x1="250" x2="442" y1="832.4883" y2="832.4883"/><text fill="#000000" font-family="sans-serif" font-size="14" lengthAdjust="spacing" textLength="114" x="255" y="850.0234">id = "test_0.0.fn"</text></g><g id="elem_tests_hook_nesting_js_hook_3_0"><rect fill="#FFCCBB" height="44.9766" style="stroke:#181818;stroke-width:0.5;" width="184" x="501" y="812"/><text fill="#000000" font-family="sans-serif" font-size="14" lengthAdjust="spacing" textLength="170" x="508" y="827.5352">HookInvocationMetadata</text><line style="stroke:#181818;stroke-width:0.5;" x1="502" x2="684" y1="832.4883" y2="832.4883"/><text fill="#000000" font-family="sans-serif" font-size="14" lengthAdjust="spacing" textLength="106" x="507" y="850.0234">id = "hook_3.0"</text></g><g id="elem_tests_hook_nesting_js_test_1_0"><rect fill="#FFFFBB" height="44.9766" style="stroke:#181818;stroke-width:0.5;" width="177" x="1660.5" y="673.5"/><text fill="#000000" font-family="sans-serif" font-size="14" lengthAdjust="spacing" textLength="163" x="1667.5" y="689.0352">TestInvocationMetadata</text><line style="stroke:#181818;stroke-width:0.5;" x1="1661.5" x2="1836.5" y1="693.9883" y2="693.9883"/><text fill="#000000" font-family="sans-serif" font-size="14" lengthAdjust="spacing" textLength="96" x="1666.5" y="711.5234">id = "test_1.0"</text></g><g id="elem_tests_hook_nesting_js_hook_0_1"><rect fill="#FFCCBB" height="44.9766" style="stroke:#181818;stroke-width:0.5;" width="184" x="994" y="812"/><text fill="#000000" font-family="sans-serif" font-size="14" lengthAdjust="spacing" textLength="170" x="1001" y="827.5352">HookInvocationMetadata</text><line style="stroke:#181818;stroke-width:0.5;" x1="995" x2="1177" y1="832.4883" y2="832.4883"/><text fill="#000000" font-family="sans-serif" font-size="14" lengthAdjust="spacing" textLength="106" x="1000" y="850.0234">id = "hook_0.1"</text></g><g id="elem_tests_hook_nesting_js_hook_2_1"><rect fill="#FFCCBB" height="44.9766" style="stroke:#181818;stroke-width:0.5;" width="184" x="1446" y="812"/><text fill="#000000" font-family="sans-serif" font-size="14" lengthAdjust="spacing" textLength="170" x="1453" y="827.5352">HookInvocationMetadata</text><line style="stroke:#181818;stroke-width:0.5;" x1="1447" x2="1629" y1="832.4883" y2="832.4883"/><text fill="#000000" font-family="sans-serif" font-size="14" lengthAdjust="spacing" textLength="106" x="1452" y="850.0234">id = "hook_2.1"</text></g><g id="elem_tests_hook_nesting_js_test_1_0_fn"><rect fill="#FFEEAA" height="44.9766" style="stroke:#181818;stroke-width:0.5;" width="194" x="1667" y="812"/><text fill="#000000" font-family="sans-serif" font-size="14" lengthAdjust="spacing" textLength="180" x="1674" y="827.5352">TestFnInvocationMetadata</text><line style="stroke:#181818;stroke-width:0.5;" x1="1668" x2="1860" y1="832.4883" y2="832.4883"/><text fill="#000000" font-family="sans-serif" font-size="14" lengthAdjust="spacing" textLength="114" x="1673" y="850.0234">id = "test_1.0.fn"</text></g><g id="elem_tests_hook_nesting_js_hook_3_1"><rect fill="#FFCCBB" height="44.9766" style="stroke:#181818;stroke-width:0.5;" width="184" x="1222" y="812"/><text fill="#000000" font-family="sans-serif" font-size="14" lengthAdjust="spacing" textLength="170" x="1229" y="827.5352">HookInvocationMetadata</text><line style="stroke:#181818;stroke-width:0.5;" x1="1223" x2="1405" y1="832.4883" y2="832.4883"/><text fill="#000000" font-family="sans-serif" font-size="14" lengthAdjust="spacing" textLength="106" x="1228" y="850.0234">id = "hook_3.1"</text></g><g id="elem_tests_hook_nesting_js_hook_4_0"><rect fill="#FFCCBB" height="44.9766" style="stroke:#181818;stroke-width:0.5;" width="184" x="441" y="673.5"/><text fill="#000000" font-family="sans-serif" font-size="14" lengthAdjust="spacing" textLength="170" x="448" y="689.0352">HookInvocationMetadata</text><line style="stroke:#181818;stroke-width:0.5;" x1="442" x2="624" y1="693.9883" y2="693.9883"/><text fill="#000000" font-family="sans-serif" font-size="14" lengthAdjust="spacing" textLength="106" x="447" y="711.5234">id = "hook_4.0"</text></g><!--link aggregated_result to tests_hook_nesting_js--><g id="link_aggregated_result_tests_hook_nesting_js"><path codeLine="57" d="M176,52.5 C176,72.46 176,101.82 176,122.29 " fill="none" id="aggregated_result-to-tests_hook_nesting_js" style="stroke:#181818;stroke-width:1.0;"/><polygon fill="#181818" points="176,127.09,180,118.09,176,122.09,172,118.09,176,127.09" style="stroke:#181818;stroke-width:1.0;"/><text fill="#000000" font-family="sans-serif" font-size="13" lengthAdjust="spacing" textLength="86" x="177" y="95.5684">testResults[0]</text></g><!--link tests_hook_nesting_js to tests_hook_nesting_js_describe_0--><g id="link_tests_hook_nesting_js_tests_hook_nesting_js_describe_0"><path codeLine="58" d="M176,165.04 C176,183.55 176,213.4 176,235.38 " fill="none" id="tests_hook_nesting_js-to-tests_hook_nesting_js_describe_0" style="stroke:#181818;stroke-width:1.0;"/><polygon fill="#181818" points="176,240.13,180,231.13,176,235.13,172,231.13,176,240.13" style="stroke:#181818;stroke-width:1.0;"/><text fill="#000000" font-family="sans-serif" font-size="13" lengthAdjust="spacing" textLength="115" x="177" y="208.5684">rootDescribeBlock</text></g><!--link tests_hook_nesting_js_describe_0 to tests_hook_nesting_js_hook_0--><g id="link_tests_hook_nesting_js_describe_0_tests_hook_nesting_js_hook_0"><path codeLine="59" d="M172.13,287.39 C159.84,356.85 121.63,572.78 106.38,658.96 " fill="none" id="tests_hook_nesting_js_describe_0-to-tests_hook_nesting_js_hook_0" style="stroke:#181818;stroke-width:1.0;"/><polygon fill="#181818" points="105.54,663.69,111.0459,655.5239,106.4106,658.7664,103.1681,654.131,105.54,663.69" style="stroke:#181818;stroke-width:1.0;"/><text fill="#000000" font-family="sans-serif" font-size="13" lengthAdjust="spacing" textLength="67" x="144" y="468.5684">children[0]</text></g><!--link tests_hook_nesting_js_describe_0 to tests_hook_nesting_js_describe_1--><g id="link_tests_hook_nesting_js_describe_0_tests_hook_nesting_js_describe_1"><path codeLine="60" d="M262.15,280.18 C379.29,300.15 591.75,336.36 745.02,362.48 " fill="none" id="tests_hook_nesting_js_describe_0-to-tests_hook_nesting_js_describe_1" style="stroke:#181818;stroke-width:1.0;"/><polygon fill="#181818" points="749.87,363.31,741.6731,357.8501,744.9415,362.4672,740.3245,365.7357,749.87,363.31" style="stroke:#181818;stroke-width:1.0;"/><text fill="#000000" font-family="sans-serif" font-size="13" lengthAdjust="spacing" textLength="67" x="575" y="330.5684">children[1]</text></g><!--link tests_hook_nesting_js_hook_0 to tests_hook_nesting_js_hook_0_0--><g id="link_tests_hook_nesting_js_hook_0_tests_hook_nesting_js_hook_0_0"><path codeLine="61" d="M91.65,726.9 C88.33,743.37 86.3,764.06 91,782 C93.16,790.23 96.96,798.52 101.11,805.98 " fill="none" id="tests_hook_nesting_js_hook_0-to-tests_hook_nesting_js_hook_0_0" style="stroke:#181818;stroke-width:1.0;"/><polygon fill="#181818" points="103.57,810.2,102.4943,800.4101,101.0524,805.8801,95.5824,804.4382,103.57,810.2" style="stroke:#181818;stroke-width:1.0;"/><text fill="#000000" font-family="sans-serif" font-size="13" lengthAdjust="spacing" textLength="89" x="92" y="778.5684">invocations[0]</text></g><!--link tests_hook_nesting_js_hook_0 to tests_hook_nesting_js_hook_0_1--><g id="link_tests_hook_nesting_js_hook_0_tests_hook_nesting_js_hook_0_1"><path codeLine="62" d="M184.57,726.92 C193.46,729.77 202.39,732.52 211,735 C267.15,751.15 284.3,744.46 339,765 C354.08,770.66 355.48,777.71 371,782 C497.11,816.85 828.94,797.72 959,812 C968.21,813.01 977.76,814.26 987.31,815.64 " fill="none" id="tests_hook_nesting_js_hook_0-to-tests_hook_nesting_js_hook_0_1" style="stroke:#181818;stroke-width:1.0;"/><polygon fill="#181818" points="992.08,816.34,983.7595,811.0703,987.1334,815.6109,982.5929,818.9848,992.08,816.34" style="stroke:#181818;stroke-width:1.0;"/><text fill="#000000" font-family="sans-serif" font-size="13" lengthAdjust="spacing" textLength="89" x="372" y="778.5684">invocations[1]</text></g><!--link tests_hook_nesting_js_describe_1 to tests_hook_nesting_js_hook_1--><g id="link_tests_hook_nesting_js_describe_1_tests_hook_nesting_js_hook_1"><path codeLine="63" d="M1029.36,425.44 C1103.05,446.99 1203.25,476.31 1283.86,499.88 " fill="none" id="tests_hook_nesting_js_describe_1-to-tests_hook_nesting_js_hook_1" style="stroke:#181818;stroke-width:1.0;"/><polygon fill="#181818" points="1288.17,501.15,1280.6675,494.7694,1283.3739,499.7369,1278.4064,502.4432,1288.17,501.15" style="stroke:#181818;stroke-width:1.0;"/><text fill="#000000" font-family="sans-serif" font-size="13" lengthAdjust="spacing" textLength="67" x="1175" y="468.5684">children[0]</text></g><!--link tests_hook_nesting_js_describe_1 to tests_hook_nesting_js_hook_2--><g id="link_tests_hook_nesting_js_describe_1_tests_hook_nesting_js_hook_2"><path codeLine="64" d="M956.96,425.31 C1010.69,478.77 1123.57,591.09 1185.36,652.57 " fill="none" id="tests_hook_nesting_js_describe_1-to-tests_hook_nesting_js_hook_2" style="stroke:#181818;stroke-width:1.0;"/><polygon fill="#181818" points="1188.64,655.84,1185.0859,646.6548,1185.0973,652.3116,1179.4405,652.323,1188.64,655.84" style="stroke:#181818;stroke-width:1.0;"/><text fill="#000000" font-family="sans-serif" font-size="13" lengthAdjust="spacing" textLength="67" x="1113" y="546.0684">children[1]</text></g><!--link tests_hook_nesting_js_describe_1 to tests_hook_nesting_js_hook_3--><g id="link_tests_hook_nesting_js_describe_1_tests_hook_nesting_js_hook_3"><path codeLine="65" d="M918.96,425.32 C909.01,461.87 891.39,525.68 875,580 C867.97,603.3 859.71,629.11 852.78,650.36 " fill="none" id="tests_hook_nesting_js_describe_1-to-tests_hook_nesting_js_hook_3" style="stroke:#181818;stroke-width:1.0;"/><polygon fill="#181818" points="851.24,655.08,857.8413,647.7709,852.7954,650.3281,850.2382,645.2822,851.24,655.08" style="stroke:#181818;stroke-width:1.0;"/><text fill="#000000" font-family="sans-serif" font-size="13" lengthAdjust="spacing" textLength="67" x="898" y="546.0684">children[2]</text></g><!--link tests_hook_nesting_js_describe_1 to tests_hook_nesting_js_hook_4--><g id="link_tests_hook_nesting_js_describe_1_tests_hook_nesting_js_hook_4"><path codeLine="66" d="M867.53,425.44 C825.41,446.65 768.36,475.37 721.93,498.75 " fill="none" id="tests_hook_nesting_js_describe_1-to-tests_hook_nesting_js_hook_4" style="stroke:#181818;stroke-width:1.0;"/><polygon fill="#181818" points="717.68,500.89,727.5181,500.4302,722.1493,498.6482,723.9313,493.2794,717.68,500.89" style="stroke:#181818;stroke-width:1.0;"/><text fill="#000000" font-family="sans-serif" font-size="13" lengthAdjust="spacing" textLength="67" x="801" y="468.5684">children[3]</text></g><!--link tests_hook_nesting_js_describe_1 to tests_hook_nesting_js_test_0--><g id="link_tests_hook_nesting_js_describe_1_tests_hook_nesting_js_test_0"><path codeLine="67" d="M733.5,425.45 C634.35,443.2 512.41,468.78 406,502 C393.87,505.79 381.14,510.65 369.23,515.63 " fill="none" id="tests_hook_nesting_js_describe_1-to-tests_hook_nesting_js_test_0" style="stroke:#181818;stroke-width:1.0;"/><polygon fill="#181818" points="364.84,517.49,374.6874,517.6582,369.4431,515.5376,371.5636,510.2933,364.84,517.49" style="stroke:#181818;stroke-width:1.0;"/><text fill="#000000" font-family="sans-serif" font-size="13" lengthAdjust="spacing" textLength="67" x="576" y="468.5684">children[4]</text></g><!--link tests_hook_nesting_js_describe_1 to tests_hook_nesting_js_test_1--><g id="link_tests_hook_nesting_js_describe_1_tests_hook_nesting_js_test_1"><path codeLine="68" d="M1237.71,425.44 C1365.56,441.9 1514.28,466.43 1646,502 C1659.38,505.61 1673.44,510.56 1686.51,515.68 " fill="none" id="tests_hook_nesting_js_describe_1-to-tests_hook_nesting_js_test_1" style="stroke:#181818;stroke-width:1.0;"/><polygon fill="#181818" points="1691.03,517.49,1684.1593,510.4336,1686.3876,515.633,1681.1881,517.8614,1691.03,517.49" style="stroke:#181818;stroke-width:1.0;"/><text fill="#000000" font-family="sans-serif" font-size="13" lengthAdjust="spacing" textLength="67" x="1511" y="468.5684">children[5]</text></g><!--link tests_hook_nesting_js_hook_1 to tests_hook_nesting_js_hook_1_0--><g id="link_tests_hook_nesting_js_hook_1_tests_hook_nesting_js_hook_1_0"><path codeLine="69" d="M1448.97,580.21 C1469.06,607.65 1495.62,643.93 1513.45,668.3 " fill="none" id="tests_hook_nesting_js_hook_1-to-tests_hook_nesting_js_hook_1_0" style="stroke:#181818;stroke-width:1.0;"/><polygon fill="#181818" points="1516.23,672.09,1514.1452,662.4643,1513.2781,668.0544,1507.6881,667.1873,1516.23,672.09" style="stroke:#181818;stroke-width:1.0;"/><text fill="#000000" font-family="sans-serif" font-size="13" lengthAdjust="spacing" textLength="89" x="1481" y="623.5684">invocations[0]</text></g><!--link tests_hook_nesting_js_hook_2 to tests_hook_nesting_js_hook_2_0--><g id="link_tests_hook_nesting_js_hook_2_tests_hook_nesting_js_hook_2_0"><path codeLine="70" d="M1103.34,735.45 C1074.83,744.72 1044.75,754.89 1017,765 C979.67,778.6 938.33,795.43 906.01,809.01 " fill="none" id="tests_hook_nesting_js_hook_2-to-tests_hook_nesting_js_hook_2_0" style="stroke:#181818;stroke-width:1.0;"/><polygon fill="#181818" points="901.47,810.92,911.3169,811.114,906.0782,808.9797,908.2125,803.7409,901.47,810.92" style="stroke:#181818;stroke-width:1.0;"/><text fill="#000000" font-family="sans-serif" font-size="13" lengthAdjust="spacing" textLength="89" x="1018" y="778.5684">invocations[0]</text></g><!--link tests_hook_nesting_js_hook_2 to tests_hook_nesting_js_hook_2_1--><g id="link_tests_hook_nesting_js_hook_2_tests_hook_nesting_js_hook_2_1"><path codeLine="71" d="M1298.58,735.39 C1327.99,750.74 1362.75,768.05 1395,782 C1417.68,791.81 1442.9,801.33 1465.76,809.47 " fill="none" id="tests_hook_nesting_js_hook_2-to-tests_hook_nesting_js_hook_2_1" style="stroke:#181818;stroke-width:1.0;"/><polygon fill="#181818" points="1470.41,811.11,1463.264,804.3325,1465.6974,809.4392,1460.5907,811.8726,1470.41,811.11" style="stroke:#181818;stroke-width:1.0;"/><text fill="#000000" font-family="sans-serif" font-size="13" lengthAdjust="spacing" textLength="89" x="1396" y="778.5684">invocations[1]</text></g><!--link tests_hook_nesting_js_hook_3 to tests_hook_nesting_js_hook_3_0--><g id="link_tests_hook_nesting_js_hook_3_tests_hook_nesting_js_hook_3_0"><path codeLine="72" d="M752.9,735.36 C733.91,744.57 714.06,754.74 696,765 C672.96,778.09 648.2,794.48 628.73,807.94 " fill="none" id="tests_hook_nesting_js_hook_3-to-tests_hook_nesting_js_hook_3_0" style="stroke:#181818;stroke-width:1.0;"/><polygon fill="#181818" points="624.63,810.79,634.3082,808.9646,628.7435,807.9477,629.7605,802.383,624.63,810.79" style="stroke:#181818;stroke-width:1.0;"/><text fill="#000000" font-family="sans-serif" font-size="13" lengthAdjust="spacing" textLength="89" x="697" y="778.5684">invocations[0]</text></g><!--link tests_hook_nesting_js_hook_3 to tests_hook_nesting_js_hook_3_1--><g id="link_tests_hook_nesting_js_hook_3_tests_hook_nesting_js_hook_3_1"><path codeLine="73" d="M1005.44,735.43 C1040.83,744.42 1077.8,754.47 1112,765 C1132.83,771.41 1137.43,774.8 1158,782 C1184.54,791.28 1213.78,801.05 1239.7,809.56 " fill="none" id="tests_hook_nesting_js_hook_3-to-tests_hook_nesting_js_hook_3_1" style="stroke:#181818;stroke-width:1.0;"/><polygon fill="#181818" points="1244.43,811.11,1237.1209,804.5087,1239.6781,809.5546,1234.6322,812.1118,1244.43,811.11" style="stroke:#181818;stroke-width:1.0;"/><text fill="#000000" font-family="sans-serif" font-size="13" lengthAdjust="spacing" textLength="89" x="1159" y="778.5684">invocations[1]</text></g><!--link tests_hook_nesting_js_hook_4 to tests_hook_nesting_js_hook_4_0--><g id="link_tests_hook_nesting_js_hook_4_tests_hook_nesting_js_hook_4_0"><path codeLine="74" d="M613.28,580.21 C594.17,607.53 568.93,643.63 551.89,667.99 " fill="none" id="tests_hook_nesting_js_hook_4-to-tests_hook_nesting_js_hook_4_0" style="stroke:#181818;stroke-width:1.0;"/><polygon fill="#181818" points="549.04,672.07,557.4674,666.973,551.8987,667.9678,550.9039,662.3991,549.04,672.07" style="stroke:#181818;stroke-width:1.0;"/><text fill="#000000" font-family="sans-serif" font-size="13" lengthAdjust="spacing" textLength="89" x="590" y="623.5684">invocations[0]</text></g><!--link tests_hook_nesting_js_test_0 to tests_hook_nesting_js_test_0_0--><g id="link_tests_hook_nesting_js_test_0_tests_hook_nesting_js_test_0_0"><path codeLine="75" d="M317,563.92 C317,590.96 317,636.98 317,666.68 " fill="none" id="tests_hook_nesting_js_test_0-to-tests_hook_nesting_js_test_0_0" style="stroke:#181818;stroke-width:1.0;"/><polygon fill="#181818" points="317,671.61,321,662.61,317,666.61,313,662.61,317,671.61" style="stroke:#181818;stroke-width:1.0;"/><text fill="#000000" font-family="sans-serif" font-size="13" lengthAdjust="spacing" textLength="89" x="318" y="623.5684">invocations[0]</text></g><!--link tests_hook_nesting_js_test_1 to tests_hook_nesting_js_test_1_0--><g id="link_tests_hook_nesting_js_test_1_tests_hook_nesting_js_test_1_0"><path codeLine="76" d="M1742.15,563.92 C1743.56,590.96 1745.97,636.98 1747.52,666.68 " fill="none" id="tests_hook_nesting_js_test_1-to-tests_hook_nesting_js_test_1_0" style="stroke:#181818;stroke-width:1.0;"/><polygon fill="#181818" points="1747.78,671.61,1751.2848,662.4059,1747.5082,666.6174,1743.2967,662.8408,1747.78,671.61" style="stroke:#181818;stroke-width:1.0;"/><text fill="#000000" font-family="sans-serif" font-size="13" lengthAdjust="spacing" textLength="89" x="1746" y="623.5684">invocations[0]</text></g><!--link tests_hook_nesting_js_test_0_0 to tests_hook_nesting_js_hook_0_0--><g id="link_tests_hook_nesting_js_test_0_0_tests_hook_nesting_js_hook_0_0"><path codeLine="77" d="M285.35,718.93 C250.31,743.21 193.9,782.29 156.89,807.94 " fill="none" id="tests_hook_nesting_js_test_0_0-to-tests_hook_nesting_js_hook_0_0" style="stroke:#181818;stroke-width:1.0;"/><polygon fill="#181818" points="152.82,810.76,162.4952,808.9189,156.9289,807.911,157.9368,802.3446,152.82,810.76" style="stroke:#181818;stroke-width:1.0;"/><text fill="#000000" font-family="sans-serif" font-size="13" lengthAdjust="spacing" textLength="56" x="220" y="778.5684">before[0]</text></g><!--link tests_hook_nesting_js_test_0_0 to tests_hook_nesting_js_hook_2_0--><g id="link_tests_hook_nesting_js_test_0_0_tests_hook_nesting_js_hook_2_0"><path codeLine="78" d="M370.1,718.92 C387.05,725.09 406.07,731.15 424,735 C504.01,752.17 718.23,727.59 791,765 C808.77,774.14 823.3,791.31 833.36,806.18 " fill="none" id="tests_hook_nesting_js_test_0_0-to-tests_hook_nesting_js_hook_2_0" style="stroke:#181818;stroke-width:1.0;"/><polygon fill="#181818" points="836.04,810.26,834.4376,800.5424,833.293,806.0822,827.7531,804.9376,836.04,810.26" style="stroke:#181818;stroke-width:1.0;"/><text fill="#000000" font-family="sans-serif" font-size="13" lengthAdjust="spacing" textLength="56" x="813" y="778.5684">before[1]</text></g><!--link tests_hook_nesting_js_test_0_0 to tests_hook_nesting_js_test_0_0_fn--><g id="link_tests_hook_nesting_js_test_0_0_tests_hook_nesting_js_test_0_0_fn"><path codeLine="79" d="M315.23,718.67 C314.41,736.07 314.6,760.98 320,782 C322.08,790.12 325.58,798.43 329.35,805.94 " fill="none" id="tests_hook_nesting_js_test_0_0-to-tests_hook_nesting_js_test_0_0_fn" style="stroke:#181818;stroke-width:1.0;"/><polygon fill="#181818" points="331.56,810.17,330.9367,800.3409,329.2442,805.7386,323.8465,804.0461,331.56,810.17" style="stroke:#181818;stroke-width:1.0;"/><text fill="#000000" font-family="sans-serif" font-size="13" lengthAdjust="spacing" textLength="13" x="321" y="778.5684">fn</text></g><!--link tests_hook_nesting_js_test_0_0_fn to tests_hook_nesting_js_test_0_0--><g id="link_tests_hook_nesting_js_test_0_0_fn_tests_hook_nesting_js_test_0_0"><path codeLine="81" d="M441.84,811.64 C466.93,801.03 483.6,785.93 470,765 C464.49,756.52 419.76,737.17 380.08,721.27 " fill="none" id="tests_hook_nesting_js_test_0_0_fn-to-tests_hook_nesting_js_test_0_0" style="stroke:#181818;stroke-width:1.0;"/><polygon fill="#181818" points="375.67,719.51,382.5407,726.5664,380.3124,721.367,385.5119,719.1386,375.67,719.51" style="stroke:#181818;stroke-width:1.0;"/><text fill="#000000" font-family="sans-serif" font-size="13" lengthAdjust="spacing" textLength="24" x="475" y="778.5684">test</text></g><!--link tests_hook_nesting_js_test_0_0 to tests_hook_nesting_js_hook_3_0--><g id="link_tests_hook_nesting_js_test_0_0_tests_hook_nesting_js_hook_3_0"><path codeLine="80" d="M378.94,718.99 C434.43,738.69 507.24,764.57 508,765 C528.83,776.66 549.75,793.43 565.61,807.46 " fill="none" id="tests_hook_nesting_js_test_0_0-to-tests_hook_nesting_js_hook_3_0" style="stroke:#181818;stroke-width:1.0;"/><polygon fill="#181818" points="569.24,810.71,565.1899,801.7324,565.5101,807.3802,559.8623,807.7003,569.24,810.71" style="stroke:#181818;stroke-width:1.0;"/><text fill="#000000" font-family="sans-serif" font-size="13" lengthAdjust="spacing" textLength="45" x="534" y="778.5684">after[0]</text></g><!--link tests_hook_nesting_js_test_1_0 to tests_hook_nesting_js_hook_0_1--><g id="link_tests_hook_nesting_js_test_1_0_tests_hook_nesting_js_hook_0_1"><path codeLine="82" d="M1696.13,718.98 C1679.4,725.11 1660.67,731.14 1643,735 C1491.77,768.06 1446.67,729.5 1296,765 C1276,769.71 1272.39,775.19 1253,782 C1225.46,791.68 1195.02,801.35 1167.77,809.67 " fill="none" id="tests_hook_nesting_js_test_1_0-to-tests_hook_nesting_js_hook_0_1" style="stroke:#181818;stroke-width:1.0;"/><polygon fill="#181818" points="1163.09,811.09,1172.8649,812.2951,1167.8732,809.6336,1170.5347,804.642,1163.09,811.09" style="stroke:#181818;stroke-width:1.0;"/><text fill="#000000" font-family="sans-serif" font-size="13" lengthAdjust="spacing" textLength="56" x="1297" y="778.5684">before[0]</text></g><!--link tests_hook_nesting_js_test_1_0 to tests_hook_nesting_js_hook_2_1--><g id="link_tests_hook_nesting_js_test_1_0_tests_hook_nesting_js_hook_2_1"><path codeLine="83" d="M1715.1,718.93 C1677.42,743.31 1616.66,782.61 1577.02,808.25 " fill="none" id="tests_hook_nesting_js_test_1_0-to-tests_hook_nesting_js_hook_2_1" style="stroke:#181818;stroke-width:1.0;"/><polygon fill="#181818" points="1573.09,810.8,1582.8176,809.2594,1577.2852,808.0796,1578.465,802.5471,1573.09,810.8" style="stroke:#181818;stroke-width:1.0;"/><text fill="#000000" font-family="sans-serif" font-size="13" lengthAdjust="spacing" textLength="56" x="1644" y="778.5684">before[1]</text></g><!--link tests_hook_nesting_js_test_1_0 to tests_hook_nesting_js_test_1_0_fn--><g id="link_tests_hook_nesting_js_test_1_0_tests_hook_nesting_js_test_1_0_fn"><path codeLine="84" d="M1751.41,718.93 C1753.99,742.41 1758.09,779.75 1760.91,805.38 " fill="none" id="tests_hook_nesting_js_test_1_0-to-tests_hook_nesting_js_test_1_0_fn" style="stroke:#181818;stroke-width:1.0;"/><polygon fill="#181818" points="1761.43,810.12,1764.4294,800.739,1760.8872,805.1495,1756.4767,801.6074,1761.43,810.12" style="stroke:#181818;stroke-width:1.0;"/><text fill="#000000" font-family="sans-serif" font-size="13" lengthAdjust="spacing" textLength="13" x="1759" y="778.5684">fn</text></g><!--link tests_hook_nesting_js_test_1_0_fn to tests_hook_nesting_js_test_1_0--><g id="link_tests_hook_nesting_js_test_1_0_fn_tests_hook_nesting_js_test_1_0"><path codeLine="86" d="M1740.53,811.54 C1733.13,803.1 1725.87,792.87 1722,782 C1715.19,762.87 1722.44,741.02 1731.14,724.27 " fill="none" id="tests_hook_nesting_js_test_1_0_fn-to-tests_hook_nesting_js_test_1_0" style="stroke:#181818;stroke-width:1.0;"/><polygon fill="#181818" points="1733.4,720.13,1725.5938,726.1352,1731.0167,724.5255,1732.6265,729.9484,1733.4,720.13" style="stroke:#181818;stroke-width:1.0;"/><text fill="#000000" font-family="sans-serif" font-size="13" lengthAdjust="spacing" textLength="24" x="1723" y="778.5684">test</text></g><!--link tests_hook_nesting_js_test_1_0 to tests_hook_nesting_js_hook_3_1--><g id="link_tests_hook_nesting_js_test_1_0_tests_hook_nesting_js_hook_3_1"><path codeLine="85" d="M1689.18,718.99 C1674.15,724.36 1658.03,730 1643,735 C1560.35,762.49 1464.89,790.69 1398.15,809.82 " fill="none" id="tests_hook_nesting_js_test_1_0-to-tests_hook_nesting_js_hook_3_1" style="stroke:#181818;stroke-width:1.0;"/><polygon fill="#181818" points="1393.65,811.12,1403.4026,812.4936,1398.4576,809.7464,1401.2048,804.8014,1393.65,811.12" style="stroke:#181818;stroke-width:1.0;"/><text fill="#000000" font-family="sans-serif" font-size="13" lengthAdjust="spacing" textLength="45" x="1545" y="778.5684">after[0]</text></g><!--SRC=[hLTTQzj047pthn3NryHu9VN5qDAKfBI5GabDNu8nPsbbAv5FHhea3I7_lQUFE3dPogvo1XkayzxipkpufCsNrnXfJvojLWMkfCRu4ilRJFz2BMEffV1awSdTZukY_jNx42V9Q7zvwgMnzyaJieCcHdcRv_9MMT0QIrqkrdb-ir3cCbMhnNLfu37PRJd7CYhI9NxDykY6tho8s_Z5fCA9HsJKSzKlIo_rVZVRpZ59LQhJd55wSsyo9t5VvZRYEMjpAwZWwcBsiCLgonAJlC0B6Qs5kqh0KWdsLGB1sLILOROzYZjKSLw8wQFOo5HfyyNwJiaDYgduAHLwVpQfNeiJWIOaCulNPd5SLejVy9_SR3CSH_b6F9sqLMohffYusJejFVEHNbb7rPozyZRLE1PFJuxT1BARO7SJ11LyG1MRqUy2jx8mHDReeRfBYrnjKEcA306zRvIpB7Crj4zAuDiI-88A9YNucvQfhWMunwMvH8Ayp_YNl8zzGB8FRFQ1e8AFpZxei9U9nk8Ov4EIV6YJ3mKLJ9AVeIoyEBzN0_qV7XB1il_CxBXGkdXWqAzMwwCywQFVHZpJRsuTaW6P3EnaO7VtXxhB8pdeRAi9HiiH4MEVR-CEoK5v6vKQOPSZ8iQMTZnnvJjXy9tiFPtTy_gCl7uthz_L-PjwbzABH9daA4TqM5VlSQ9SgGSCwa6NUk1kCM1O3BeMWsDO31WMWwx5mDrYmB0OT2q6xXO3diNWWCNWI1O3XiMWQp5doKE6jSEkjSFAOlkpq-dfvvvfQ5glDvDKUJMP7yxM3s3FEaMUQsjOe0UaVkJTU1AjqomkKFMMnyEpHeST9ipVdewe-feExBhRho4R43g0CATd8G8KXgb8ulai1VbumMiytnqlV8qNEE7jNiDsUA4xdjMFZ_EtnowgjmCTw9FDFJuWszAj6oYx3AoG0JYimf0q8B_2rc2K0mS2qXOSMY7tB6n6OtSq_pKQEA3Phw29SgohCLyz_T4agvoipbQNrCiawyd1aXyuyWDNVg3b1vxym94VcF83ItvuaVy_]--></g></svg>