<svg width="256" height="256" viewBox="0 0 256 256" fill="none" xmlns="http://www.w3.org/2000/svg">
<g filter="url(#filter0_d_15_20)">
<path fill-rule="evenodd" clip-rule="evenodd" d="M79.78 131.75C79.78 131.75 87.2814 136.303 87.7578 136C87.7578 136 90.7946 136.024 92.4509 134.5C92.4509 134.5 100.213 127.688 121.313 126C121.313 126 143.854 122.363 164.107 136.929L167.661 135.369C167.661 135.369 170.892 132.871 171.432 133.072C171.432 133.072 169.48 136.494 166.534 142.304C166.534 142.304 165.903 143.013 159.772 152.317C159.772 152.317 159.072 147.996 151.347 142.25C151.347 142.25 142.017 132.536 120.139 133.75C120.139 133.75 96.7828 135.404 90.574 153.25L79.78 131.75Z" fill="#0057B7" stroke="#0057B7"/>
<path fill-rule="evenodd" clip-rule="evenodd" d="M85.8247 135.109C85.8247 135.109 93.3179 125.126 112.631 121.25C112.631 121.25 125.022 117.219 138.186 120.415C138.186 120.415 152.6 121.151 167.271 135.499C166.231 135.918 165.191 136.337 164.15 136.756C162.223 135.697 160.305 134.72 158.317 133.784C152.235 130.924 145.894 128.652 139.381 127C139.381 127 116.455 121.772 94.4505 133.158L91.2863 135.195C91.2863 135.195 87.7826 137.003 85.8247 135.109Z" fill="#FFD700" stroke="#F8C000"/>
<path fill-rule="evenodd" clip-rule="evenodd" d="M90.5059 153.098C90.5059 153.098 94.4135 134.632 125.313 132.898C125.313 132.898 154.167 133.715 161.202 155.5C161.202 155.5 162.373 160.186 161.81 164.151C161.81 164.151 161.275 172.303 155.438 173.6C155.438 173.6 152.535 201.716 134.687 209.25C134.687 209.25 124.209 213.213 114.273 206.25C114.273 206.25 99.5539 196.811 96.6744 172.25C96.6744 172.25 87.1809 172.029 90.5059 153.098Z" fill="#F8C000" stroke="#F8C000"/>
<path fill-rule="evenodd" clip-rule="evenodd" d="M93.8587 177.75C93.8587 177.75 94.3585 198.78 113.569 211.5C113.569 211.5 130.446 223.374 146.185 206.25C146.185 206.25 156.613 194.184 159.091 175.75C159.091 175.75 178.007 189.295 179.74 193.25C179.74 193.25 177.316 197.008 172.7 199L181.148 204C181.148 204 180.987 207.32 171.996 209.5C171.996 209.5 173.345 212.582 177.158 213.25C177.158 213.25 175.298 220.579 166.365 217.5C166.365 217.5 169.793 223.67 168.007 228.25C168.007 228.25 164.19 225.022 162.376 225.5C162.376 225.5 159.478 224.709 157.683 224.75C157.683 224.75 158.785 231.256 158.387 232.5C158.387 232.5 157.877 234.355 154.867 233.25C154.867 233.25 150.646 231.42 149.001 229.75C149.001 229.75 148.571 240.279 146.42 239.25C146.42 239.25 139.517 232.939 138.677 233.25C138.677 233.25 136.689 242.993 134.218 242C134.218 242 131.688 242.692 128.352 235.5C128.352 235.5 123.536 243.312 120.374 242C120.374 242 119.056 241.504 118.262 235.5C118.262 235.5 116.945 233.878 114.977 235.25C114.977 235.25 109.767 240.512 108.172 238.75C108.172 238.75 107.33 239.806 107.468 231.75C107.468 231.75 107.304 230.131 105.826 230.75C105.826 230.75 99.9688 235.905 97.6133 233.5C97.6133 233.5 96.4504 233.412 97.8478 227C97.8478 227 96.7932 223.507 93.6242 226.25C93.6242 226.25 88.4171 230.077 86.5849 227C86.5849 227 86.0873 225.292 87.9928 221.25C87.9928 221.25 88.1466 218.296 84.741 218.419C84.741 218.419 78.9682 220.113 76.592 216.945C76.592 216.945 76.0007 213.576 82.1263 212C82.1263 212 83.7913 211.018 78.8416 209.25C78.8416 209.25 70.5686 207.081 71.6505 204.679L71.954 204.158C71.954 204.158 72.1902 203.434 81.1879 200.75C81.1879 200.75 72.9145 195.863 73.6791 194.5C73.6791 194.5 83.0193 184.224 93.8587 177.75Z" fill="#0057B7" stroke="#0057B7"/>
<path fill-rule="evenodd" clip-rule="evenodd" d="M103.245 153.75C103.245 153.75 113.038 149.808 119.201 156.5V157.5C119.201 157.5 114.364 154.908 113.569 155.25C113.569 155.25 113.767 158.213 111.692 159C111.692 159 110.597 159.713 108.538 159.252C108.538 159.252 107.092 159.066 104.418 156.25C104.418 156.25 103.983 155.725 107.107 155.048L107.021 155.005L103.949 155C103.949 155 102.933 154.788 103.245 153.75Z" fill="#0057B7" stroke="#0057B7"/>
<path fill-rule="evenodd" clip-rule="evenodd" d="M132.725 156.912C133.427 155.869 134.302 154.953 135.312 154.205C137.443 152.631 140.056 151.911 142.738 152.013C142.738 152.013 146.105 152.295 149.94 154.75H145.716C145.716 154.75 145.848 158.281 142.9 159C142.9 159 140.088 159.18 139.146 157.75C139.146 157.75 141.425 157.824 141.023 156.25C141.023 156.25 141.25 155.048 138.207 155.5L137.666 155.871C137.666 155.871 136.631 156.548 135.932 156.391C135.434 156.433 134.941 156.52 134.459 156.651L132.576 157.75C132.626 157.47 132.675 157.191 132.725 156.912Z" fill="#0057B7" stroke="#0057B7"/>
<path fill-rule="evenodd" clip-rule="evenodd" d="M94.0937 174.25L93.8588 177.25C93.8588 177.25 84.0037 183.35 73.4447 194.25L73.2097 194.75C73.2097 194.75 73.7581 196.774 80.484 200.5C80.484 200.5 72.9995 203.163 72.5058 203.5C72.1903 203.565 71.9023 203.725 71.6812 203.959C71.4602 204.193 71.3168 204.49 71.2706 204.808C71.2245 205.127 71.2778 205.452 71.4234 205.739C71.569 206.026 71.7997 206.262 72.084 206.413C72.5387 206.822 73.0223 207.198 73.5309 207.537C74.9968 208.509 76.6432 209.177 78.3722 209.5C78.3722 209.5 81.868 210.473 81.8919 211.75C81.8919 211.75 78.1329 212.133 76.7298 214.75C76.6197 215.022 76.2158 215.63 76.2452 216.079C76.237 216.328 76.3094 217.225 76.3753 217.466C76.8616 218.522 77.3939 218.84 78.4992 219.2C79.4806 219.761 81.2426 219.784 83.0653 219.5C83.0653 219.5 86.4241 218.161 87.2889 219.75C87.2889 219.75 87.8094 220.815 86.8194 222.75C86.8194 222.75 85.1935 226.38 86.5849 228C86.5849 228 90.2216 230.045 94.0937 226.25C94.0937 226.25 97.3598 224.387 97.3785 227.75C97.3785 227.75 95.079 233.22 97.6134 234C97.6134 234 99.6502 235.664 103.949 232.5C103.949 232.5 107.384 229.533 106.999 231.75V237.5C106.999 237.5 107.511 241.065 110.754 239C110.754 239 111.973 238.442 115.681 235.25C115.681 235.25 118.59 234.351 118.262 237.25C118.262 237.25 118.253 241.619 120.374 242.5C120.374 242.5 123.744 243.679 128.118 236C128.118 236 132.075 244.102 135.157 242.25C135.157 242.25 137.612 240.207 138.911 234C138.911 234 139.442 233.324 145.95 239.5C145.95 239.5 148.723 242.16 149.001 230.25C149.001 230.25 155.646 235.189 157.448 233.751C157.448 233.751 158.186 233.822 158.856 232C158.856 232 158.586 226.223 157.918 225C158.075 225 165.341 225.146 167.773 229C167.773 229 168.788 227.419 168.711 224.501C168.634 221.583 167.586 219.271 166.834 218C166.834 218 172.323 219.022 173.639 217.75C173.639 217.75 176.573 216.378 177.393 213.5C177.393 213.5 173.747 212.519 172.231 209.5C172.231 209.5 181.524 207.545 181.852 203.751C181.852 203.751 174.837 200.429 173.404 199C173.404 199 179.415 195.58 180.444 193.25C180.444 193.25 170.944 183.212 159.091 175.5V172.75C159.091 172.75 175.199 183.831 180.678 189.75C180.678 189.75 186.555 195.164 178.332 198.5C178.332 198.5 182.764 201.823 184.198 202.25C184.198 202.25 184.275 208.899 178.332 210.25C178.332 210.25 179.444 211.903 181.617 212.5C181.617 212.5 178.935 221.708 171.058 221C171.058 221 172.826 230.186 168.946 231.5C168.946 231.5 161.97 226.284 160.733 227.75C160.733 227.75 163.16 242.262 150.643 233.751C150.643 233.751 150.817 241.092 147.828 241.001C147.828 241.001 145.427 242.544 140.084 237C140.084 237 136.374 252.521 127.883 239.75C127.883 239.75 118.278 252.747 116.15 237.5C116.15 237.5 103.456 249.48 104.887 234.25C104.887 234.25 91.4479 243.639 94.7976 228.5C94.7976 228.5 80.6041 237.163 84.4731 221.5C84.4731 221.5 66.2337 223.187 77.4338 210.75C77.4338 210.75 57.5181 205.229 75.5565 199.75C75.5565 199.75 69.7759 198.032 69.925 195.25C69.925 195.25 67.0811 192.203 94.0937 174.25Z" fill="#FFD700" stroke="#FFD700"/>
<path fill-rule="evenodd" clip-rule="evenodd" d="M143.865 181.229L143.838 181.25C143.838 181.25 137.657 193.383 126.223 192.152C126.223 192.152 116.775 192.902 110.492 181.066C110.05 181.75 126.398 200.982 143.865 181.229Z" fill="white" stroke="white"/>
<path fill-rule="evenodd" clip-rule="evenodd" d="M122.127 170.652C122.56 170.284 123.485 170.094 124.424 170.284C125.114 170.423 125.551 170.565 126.093 170.999C126.574 171.384 126.873 172.126 127.307 172.126C127.584 172.126 127.693 171.963 127.87 171.692C128.142 171.263 128.514 170.906 128.954 170.652C129.844 170.144 131.117 169.715 131.901 170.544C132.347 171.015 132.405 171.547 132.378 172.083C132.346 172.71 132.184 173.294 131.637 173.75C130.232 174.922 124.792 175.02 123.059 173.946C122.748 173.754 122.482 173.498 122.277 173.195C122.072 172.892 121.934 172.549 121.872 172.189C121.782 171.632 121.637 171.069 122.127 170.652Z" fill="white"/>
<path fill-rule="evenodd" clip-rule="evenodd" d="M103.77 155.005L104.333 156.088C104.333 156.088 106.263 155.015 107.324 154.918C107.324 154.918 105.473 154.934 104.81 155.005C104.584 155.029 103.77 155.005 103.77 155.005Z" fill="white" stroke="white"/>
<path fill-rule="evenodd" clip-rule="evenodd" d="M110.055 152.317C110.055 152.317 118.558 152.79 119.201 156.251C119.201 156.251 117.137 152.786 110.055 152.317Z" fill="white" stroke="white"/>
<path fill-rule="evenodd" clip-rule="evenodd" d="M113.696 155.352C113.696 155.352 116.295 155.845 117.467 156.955C117.467 156.955 115.373 156.613 115.083 156.565C114.804 156.52 113.886 156.497 113.609 156.392C113.609 156.392 113.845 155.589 113.696 155.352Z" fill="white" stroke="white"/>
<path fill-rule="evenodd" clip-rule="evenodd" d="M132.81 155.75C132.81 155.75 138.388 145.873 149.939 154.251C149.939 154.251 139.158 147.572 133.045 156.001L132.81 155.75Z" fill="white" stroke="white"/>
<path fill-rule="evenodd" clip-rule="evenodd" d="M138.186 155.524C138.186 155.524 139.619 155.154 140.527 155.568C141.14 155.847 141.392 156.29 141.004 157.258C141.004 157.258 140.06 157.804 139.357 157.735C138.549 157.657 137.979 156.886 138.186 155.524Z" fill="#469DDD" stroke="#469DDD"/>
<path fill-rule="evenodd" clip-rule="evenodd" d="M110.922 157.476C110.922 157.476 111.47 157.324 111.743 157.549C111.846 157.634 112.041 157.812 112.049 158.039C112.049 158.039 111.121 158.382 110.922 157.476Z" fill="#469DDD" stroke="#469DDD"/>
<path fill-rule="evenodd" clip-rule="evenodd" d="M30.0348 101.75C30.0348 101.75 51.3166 63.8382 101.602 93.7502C101.602 93.7502 89.8141 62.4229 83.5342 56.0004C83.5342 56.0004 80.8013 48.196 65.4664 37.2503C65.4664 37.2503 55.7348 46.5736 45.5217 38.0002C45.5217 38.0002 35.6102 28.5438 44.8178 17.2502C44.8178 17.2502 51.861 8.08456 64.0585 16.2502C64.0585 16.2502 71.3007 22.0751 67.1092 33.7501C67.1092 33.7501 84.9291 32.7319 106.061 45.7503C106.061 45.7503 122.096 55.0263 131.402 78.5002L135.157 89.2503C135.157 89.2503 134.996 75.2523 148.062 61.5C148.062 61.5 158.381 46.4902 192.88 40.5002C192.88 40.5002 186.298 25.802 200.858 20.7501C200.858 20.7501 212.79 17.333 216.814 30.5002C216.814 30.5002 218.434 41.3634 210.478 45.7503C210.478 45.7503 202.793 50.3029 195.93 43.7503C195.93 43.7503 183.193 53.6626 177.393 62.4999C177.393 62.4999 166.088 78.6332 166.365 82.5001C166.365 82.5001 186.526 75.9363 205.551 81.5001C205.551 81.5001 217.844 84.0111 228.312 93.5C228.312 93.5 237.513 85.0358 246.145 94.0002C246.145 94.0002 254.387 107.342 241.686 116.5C241.686 116.5 232.195 121.124 225.965 110.75C225.965 110.75 204.791 103.157 193.799 106.977C193.799 106.977 174.219 108.155 166.144 134.589C166.144 134.589 155.698 123.091 135.157 120C135.157 120 123.144 117.218 104.887 123.25C104.887 123.25 93.2098 127.002 87.2888 133.75C87.2888 133.75 78.0839 119.871 73.2097 117.5C73.2097 117.5 66.257 111.39 55.1419 110.5C55.1419 110.5 40.7327 110.627 32.1466 116.75C32.1466 116.75 27.8031 126.865 16.6599 123C16.6599 123 5.21103 117.949 10.7937 104.5C10.7937 104.5 17.8385 92.6709 30.0348 101.75Z" fill="#0057B7" stroke="#0057B7"/>
<path fill-rule="evenodd" clip-rule="evenodd" d="M12.6709 115.25C12.6709 115.25 9.56736 110.369 13.8442 104.75C13.8442 104.75 18.9083 97.7601 26.2805 103.5L27.923 105.25C27.923 105.25 22.2635 103.832 20.649 106.5C20.649 106.5 18.5097 110.147 22.9954 111.75L24.4033 113.5C24.4033 113.5 18.9066 117.995 14.3135 114L12.6709 113.75V115.25Z" fill="#088254"/>
<path fill-rule="evenodd" clip-rule="evenodd" d="M12.1802 113.783L14.5481 114C14.5481 114 18.7333 116.821 22.9954 114L24.1687 113.5L21.8029 111.009C21.8029 111.009 26.0131 109.613 29.9519 112.092C29.9519 112.092 30.3438 115.376 27.2191 118.25C27.2191 118.25 22.85 123.413 15.4867 118.75C15.4867 118.75 13.6142 116.755 13.059 116.164C12.5037 115.572 12.1802 113.783 12.1802 113.783Z" fill="#FFD700"/>
<path fill-rule="evenodd" clip-rule="evenodd" d="M30.0347 112.25C30.0347 112.25 31.0693 107.812 27.9228 105.25C27.9228 105.25 21.2577 103.718 19.9448 107.25C19.9448 107.25 19.2914 110.83 22.9953 111.5C22.9953 111.5 23.5501 111.916 25.3417 111.25L30.0347 112.25Z" fill="#A0F6FD"/>
<path fill-rule="evenodd" clip-rule="evenodd" d="M61.0082 18.2504C61.0082 18.2504 54.3117 12.9919 48.3373 17.7505C48.3373 17.7505 42.3299 21.3369 44.1137 30.5005C44.1137 30.5005 45.8796 34.9935 49.5103 37.0005L49.0413 36.5005C49.0413 36.5005 45.7236 33.8203 45.2867 31.2505H46.46C46.46 31.2505 47.5185 35.1481 48.5718 31.2505C48.5718 31.2505 50.0712 31.3572 50.6836 35.5005C50.6836 35.5005 51.2055 36.1658 51.857 35.5005C51.857 35.5005 52.7699 31.3789 50.6836 30.5005L46.46 30.2505L46.2255 30.0005H52.0915C52.0915 30.0005 54.8583 29.5696 55.8457 28.5005L62.6505 27.7506C62.6505 27.7506 56.3632 27.6308 54.4378 27.0008C54.4378 27.0008 52.1292 24.1073 54.2033 22.0008C54.2033 22.0008 54.831 20.7048 55.3767 19.5008C55.3767 19.5008 56.9046 17.5013 57.254 17.5008C57.254 17.5008 58.3467 16.2704 59.6003 18.5008L61.7121 19.0008L61.0082 18.2504Z" fill="#088254"/>
<path fill-rule="evenodd" clip-rule="evenodd" d="M65.232 29.2504C65.232 29.2504 65.2893 18.2177 59.8351 18.5004C59.8351 18.5004 57.3405 15.8398 56.3154 18.2504L53.2651 23.0004L53.4996 23.2504C53.4996 23.2504 52.6397 28.0925 57.2542 27.5004C57.2542 27.5004 65.1011 28.6216 65.232 29.2504Z" fill="#A0F6FD"/>
<path fill-rule="evenodd" clip-rule="evenodd" d="M44.583 30.0002H52.3263C52.3263 30.0002 57.3215 27.3741 58.6621 27.7502C58.6621 27.7502 64.5849 28.4037 65.2321 28.7502C65.2321 28.7502 64.2928 37.337 56.0809 38.0002C56.0809 38.0002 48.7589 39.321 45.5219 31.5002C45.6571 31.4714 45.6957 30.9255 46.4603 31.2502C46.4603 31.2502 46.9887 33.061 47.8682 32.7502C47.8682 32.7502 48.5045 31.5883 48.5721 31.2502C48.5721 31.2502 49.69 30.5198 50.4494 34.7502C50.4494 34.7502 50.9817 36.1592 51.6224 35.2502C51.6224 35.2502 52.4689 34.8258 51.6224 31.5002C51.6224 31.5002 51.159 30.6739 50.4494 30.5002L44.583 30.0002Z" fill="#FFD700"/>
<path fill-rule="evenodd" clip-rule="evenodd" d="M48.1023 25.75L46.46 27.25L48.1023 28.7497L49.9796 27.4998L48.1023 25.75Z" fill="#FFD700"/>
<path fill-rule="evenodd" clip-rule="evenodd" d="M209.54 25.2502C209.54 25.2502 202.673 19.4054 196.634 27.2502C196.634 27.2502 191.29 31.8796 195.696 38.7502L197.573 41.2502L199.685 40.2502L200.858 39.7502L203.674 38.7502L198.277 38.0004L197.573 37.2505L198.277 36.5006L198.746 36.0006L196.4 35.5004C196.4 35.5004 206.005 34.5555 213.06 34.2504C213.06 34.2504 202.119 33.3299 203.204 29.7504C203.204 29.7502 204.277 24.3921 209.54 25.2502Z" fill="#088254"/>
<path fill-rule="evenodd" clip-rule="evenodd" d="M209.54 25.2502C209.54 25.2502 214.564 28.2144 214.233 34.0002L204.612 34.2502C204.612 34.2502 202.373 32.2302 203.439 29.0002C203.439 29.0002 203.794 25.1929 209.54 25.2502Z" fill="#A0F6FD"/>
<path fill-rule="evenodd" clip-rule="evenodd" d="M197.573 41.25C197.573 41.25 201.972 45.7714 208.367 42.75C208.367 42.75 213.114 41.9438 214.233 34L194.757 35.25L198.746 35.9999L197.573 36.9999L198.042 37.9999L203.205 38.7498L199.45 40.2498L197.573 41.25Z" fill="#FFD700"/>
<path fill-rule="evenodd" clip-rule="evenodd" d="M200.858 36.75L208.367 36.5L204.143 38L200.858 36.75Z" fill="#088254"/>
<path fill-rule="evenodd" clip-rule="evenodd" d="M240.748 95.2505C240.748 95.2505 234.559 90.4213 228.312 98.0003C228.312 98.0003 224.823 101.664 227.373 108.25C227.373 108.25 228.78 105.526 231.597 105.5C231.597 105.5 234.503 107.869 239.106 105.25C239.106 105.25 233.957 103.396 235.82 99.0003C235.82 99.0003 235.818 96.2908 240.748 95.2505Z" fill="#157E37"/>
<path fill-rule="evenodd" clip-rule="evenodd" d="M244.971 99.7501C244.971 99.7501 244.446 97.0197 240.748 95.5C240.748 95.5 234.784 96.0774 235.116 100.75C235.116 100.75 236.31 105.825 239.34 105C239.34 105 244.971 104.639 244.971 99.7501Z" fill="#A0F6FD"/>
<path fill-rule="evenodd" clip-rule="evenodd" d="M227.138 108.25C227.138 108.25 229.395 105.265 231.831 105.5C231.831 105.5 234.741 108.065 239.106 105C239.106 105 244.004 104.732 244.737 99.75C244.737 99.75 246.979 102.616 245.675 106.75C245.675 106.75 244.901 111.623 239.34 113.75C239.34 113.75 232.654 117.352 227.138 108.25Z" fill="#FFD700"/>
<g clip-path="url(#clip0_15_20)">
<path fill-rule="evenodd" clip-rule="evenodd" d="M123.318 98.0404C123.318 98.0404 131.361 93.3048 135.52 100.79C135.52 100.79 138.467 106.512 132.704 111.79C132.704 111.79 124.828 116.844 121.206 108.54C121.206 108.54 118.286 102.814 123.318 98.0404Z" fill="#F8C000"/>
<path fill-rule="evenodd" clip-rule="evenodd" d="M129.184 99.0403C129.184 99.0403 126.227 98.3169 126.838 103.04L128.48 105.29H126.838L125.664 105.54L122.379 105.29C122.379 105.29 121.873 102.238 124.022 100.29C124.022 100.29 126.326 98.1449 129.184 99.0403Z" fill="#088254"/>
<path fill-rule="evenodd" clip-rule="evenodd" d="M127.307 111.041C127.307 111.041 127.568 109.64 127.542 108.541C127.542 108.541 125.566 106.362 124.961 105.541L122.379 105.291C122.379 105.291 124.348 111.399 127.307 111.041Z" fill="#C3CB00"/>
<path fill-rule="evenodd" clip-rule="evenodd" d="M127.776 105.291L133.642 107.791C133.642 107.791 132.2 109.908 132.401 109.608C132.603 109.308 131.315 111.102 130.123 110.791C129.748 110.987 128.465 111.404 127.542 111.041C126.619 110.677 127.503 109.445 127.307 108.291L124.726 105.541L127.776 105.291Z" fill="#FFD700"/>
<path fill-rule="evenodd" clip-rule="evenodd" d="M130.357 104.791L130.123 106.29L133.173 108.29C133.173 108.29 135.014 106.38 134.581 103.79C134.581 103.79 132.81 103.365 132.469 104.29C132.67 104.915 132.495 105.796 132 105.04C131.36 104.064 130.58 104.829 130.357 104.791Z" fill="#ECEC40"/>
<path fill-rule="evenodd" clip-rule="evenodd" d="M127.307 98.7907C127.307 98.7907 132.135 97.8847 134.346 103.791C134.346 103.791 129.038 104.86 127.988 105.218L127.776 105.291C127.776 105.291 127.539 104.015 126.603 102.541L127.307 98.7907Z" fill="#A0F6FD"/>
<path fill-rule="evenodd" clip-rule="evenodd" d="M130.123 106.29L127.776 105.541C129.182 104.413 130.697 103.795 132.311 103.849C132.605 103.859 133.156 103.915 133.158 103.9C133.159 103.889 132.469 103.791 132.469 103.791C132.703 104.218 132.771 104.732 132.551 105.157C132.473 105.305 132.365 105.436 132.234 105.541C132.234 105.541 131.03 103.747 130.123 106.29Z" fill="white"/>
</g>
</g>
<defs>
<filter id="filter0_d_15_20" x="-4" y="0" width="264" height="264" filterUnits="userSpaceOnUse" color-interpolation-filters="sRGB">
<feFlood flood-opacity="0" result="BackgroundImageFix"/>
<feColorMatrix in="SourceAlpha" type="matrix" values="0 0 0 0 0 0 0 0 0 0 0 0 0 0 0 0 0 0 127 0" result="hardAlpha"/>
<feOffset dy="4"/>
<feGaussianBlur stdDeviation="2"/>
<feComposite in2="hardAlpha" operator="out"/>
<feColorMatrix type="matrix" values="0 0 0 0 0 0 0 0 0 0 0 0 0 0 0 0 0 0 0.25 0"/>
<feBlend mode="normal" in2="BackgroundImageFix" result="effect1_dropShadow_15_20"/>
<feBlend mode="normal" in="SourceGraphic" in2="effect1_dropShadow_15_20" result="shape"/>
</filter>
<clipPath id="clip0_15_20">
<rect width="15.9946" height="16.8182" fill="white" transform="translate(120.328 96.5312)"/>
</clipPath>
</defs>
</svg>
