<svg width="550" height="533" viewBox="0 0 550 533" fill="none" xmlns="http://www.w3.org/2000/svg">
<g clip-path="url(#clip0_127_3)">
<path d="M122.4 5.88021C129.56 9.69354 133.6 16.6669 135.573 24.3069C137.48 32.5469 135.987 40.0135 134.507 48.0935C157.68 49.0935 180.227 54.6402 201.213 64.5202C214.52 70.9202 227.12 77.4802 237.813 87.8535C257.72 106.08 272.56 129.147 281.947 154.387C284.04 160.387 286.093 166.414 288.067 172.467C289.827 162.667 292.08 153.08 296.32 144.014C302.373 130.24 311.387 118.827 321.627 107.947C330.133 98.9869 340.16 92.3735 350.933 86.4802C372.667 74.8935 395.52 68.6802 419.52 63.8802C417.667 55.4935 415.947 45.2669 418.707 36.9202C422.6 25.9735 433.787 18.7335 445.053 17.5469C453.84 17.0402 463.267 20.4669 469.013 27.2935C473.333 32.4002 476.76 39.1335 476.547 45.9602C476.907 55.1202 474.773 64.0935 468.8 71.2135C461.827 79.0802 450.653 82.1069 440.52 79.6669C435.707 78.4002 431.76 75.5735 427.573 72.9869C420.12 78.7202 413.36 85.0802 406.4 91.4269C392.987 104 382.987 118.854 373.333 134.374C368.507 142.507 363.48 149.96 360.96 159.214C366.973 158.307 372.84 156.747 378.827 155.68C394.493 152.827 410.48 152.014 426.347 153.294C453.547 156.107 481.053 166.094 501.52 184.64C506.533 182.027 511.84 178.654 517.4 177.507C527.24 175.454 537.56 179.374 543.68 187.254C547.76 194.08 550.12 203.494 549.533 211.387C548.853 222.64 542.093 233.12 532.613 239.04C526.56 242.014 518.653 242.04 512.307 239.934C505.747 237.654 502.093 232.907 497.667 227.947C495.053 224.747 490.72 223.947 486.96 222.734C472.52 218.694 457.36 215.214 442.333 214.72C433.227 214.294 424.933 216.64 416.16 218.64C403.227 221.787 391.453 229.787 382.453 239.44C371.733 251.04 365.44 264.894 360.2 279.614C354.627 276.427 349.88 271.72 344.493 268.107C327.28 256.667 307.8 249.974 287.48 246.694C277.813 245.974 268.013 246.32 258.32 246.414C250.16 246.36 242.64 248.454 234.613 250.28C221.6 251.507 210.267 256.614 198.84 262.6C191.027 266.654 185.04 272.974 177.027 276.707C173.253 269.694 168.027 263.414 163.147 257.147C149.493 239.28 127.627 226.72 105.053 225.4C93.9067 225.627 82.6534 227.56 71.96 230.707C66.36 232.454 60.48 234.627 55.6934 238.054C52.0534 240.987 49.8267 245.48 46.4 248.72C40.56 254.667 31.8534 256.974 23.72 255.68C10.4534 253.64 -0.239964 240.694 -0.0399642 227.32C-0.0666308 220.987 1.33337 213.92 5.05337 208.654C10.0134 202.014 17.96 196.707 26.36 196.147C34.04 195.72 41.2667 199.774 47.8 203.307C53.3734 196.294 58.2534 189.307 65.2934 183.614C75.9867 174.334 88.3334 167.227 101.987 163.32C120.32 158.014 140.547 158.547 158.973 163.16C177.467 167.494 193.813 175.467 210.347 184.534C207.64 175.84 203.8 167.294 200.36 158.827C193.973 143.76 187.36 128.48 179.547 114.107C176.213 107.854 171.733 102.427 168.12 96.3602C160.8 83.7602 148.947 73.1869 137.773 64.0135C135.16 62.0669 132.373 59.3602 129.2 58.4669C123.44 61.2269 119.133 65.2269 112.56 66.5602C104.867 67.6935 96.88 67.6935 89.92 63.7869C82.2 59.8402 77.1334 52.7869 74.2667 44.7469C67.32 27.0935 80.0934 3.68021 99.12 0.840206C106.827 -0.773127 115.64 2.22687 122.4 5.88021Z" fill="#0233FC"/>
<path d="M104.867 7.84023C110.6 8.04023 115.267 10.7202 119.68 14.1469C116.6 13.0536 113.507 11.9469 110.36 11.0136C107.133 14.8002 104.053 19.0136 102.173 23.6536C101.067 26.7602 101.627 31.3202 104.387 33.4269C106.653 34.4669 109.373 34.7336 111.84 35.0402C106.613 36.6269 101.627 39.0669 96.4934 40.9602C97.7334 45.1469 98.1467 48.7736 97.9201 53.1736C95.1734 50.4402 93.44 47.1869 91.8134 43.7202C89.24 44.9602 86.6267 46.1069 84 47.2402C77.4267 39.6002 78.4934 29.2136 82.4134 20.6002C86.6134 12.5869 95.6667 6.88023 104.867 7.84023Z" fill="#088155"/>
<path d="M110.36 11.0132C113.507 11.9465 116.6 13.0532 119.68 14.1465C126.907 19.0799 128.147 28.5865 128.573 36.6399C123 36.0665 117.427 35.4932 111.84 35.0399C109.373 34.7332 106.653 34.4665 104.387 33.4265C101.627 31.3199 101.067 26.7599 102.173 23.6532C104.053 19.0132 107.133 14.7999 110.36 11.0132Z" fill="#A0F5FB"/>
<path d="M458.56 28.9602C453.427 30.3469 448.147 30.5202 445.747 36.0535C442.947 41.5735 445.427 45.7469 447.613 50.8135C441.213 51.2935 434.853 51.9869 428.427 51.9869C430.32 54.0669 432.013 56.3602 434.053 58.3069C436.947 59.5336 440.333 59.8136 443.413 60.3469C439.587 62.2402 435.84 64.2935 432.267 66.6669C425.48 60.2535 421.427 51.2935 423.88 41.9335C425.44 35.4802 430.627 31.2269 435.907 27.7202C443.027 23.2135 451.813 24.2935 458.56 28.9602Z" fill="#088155"/>
<path d="M458.56 28.96C463.24 32.5333 467.293 36.4 469.027 42.2133C471.387 50.6 468.6 60.36 462.493 66.52L462.133 66.84C458.133 69.96 452.467 71.3066 447.547 72.08C454 70.1333 461.12 67.7733 465.04 61.8666C467.573 58.4 468.133 54.4933 468.52 50.3333C461.56 50.3866 454.573 50.4266 447.613 50.8133C445.427 45.7466 442.947 41.5733 445.747 36.0533C448.147 30.52 453.427 30.3466 458.56 28.96Z" fill="#A0F5FB"/>
<path d="M88.2533 31.5602C90.8267 31.4802 91.84 33.2669 93.6267 34.7469C92.0667 35.6669 90.48 36.5469 88.8933 37.4002C88.0533 36.5202 87.2267 35.6402 86.4133 34.7469C86.9733 33.6402 87.5867 32.5735 88.2533 31.5602Z" fill="#FAEA4B"/>
<path d="M111.84 35.04C117.427 35.4934 123 36.0667 128.573 36.64C128.12 45.28 122.667 53.6 114.72 57.12C110.36 59.1067 105.627 59.08 100.947 58.6267C93.6267 57.28 88.68 52.7067 84 47.24C86.6267 46.1067 89.24 44.96 91.8133 43.72C93.44 47.1867 95.1733 50.44 97.92 53.1734C98.1467 48.7734 97.7333 45.1467 96.4933 40.96C101.627 39.0667 106.613 36.6267 111.84 35.04Z" fill="#FAEA4B"/>
<path d="M468.52 50.3335C468.133 54.4935 467.573 58.4002 465.04 61.8668C461.12 67.7735 454 70.1335 447.547 72.0802C441.707 72.4802 436.933 69.8268 432.267 66.6668C435.84 64.2935 439.587 62.2402 443.413 60.3468C440.333 59.8135 436.947 59.5335 434.053 58.3068C432.013 56.3602 430.32 54.0668 428.427 51.9868C434.853 51.9868 441.213 51.2935 447.613 50.8135C454.573 50.4268 461.56 50.3868 468.52 50.3335Z" fill="#FAEA4B"/>
<path d="M440.587 56.16C445.293 55.6934 449.96 55.6134 454.68 55.8667C452.107 56.7734 449.32 58.1467 446.573 58.28C444.52 57.8667 442.52 56.9467 440.587 56.16Z" fill="#177F38"/>
<path d="M518.453 185.053C524.12 184.68 528.84 187.187 533.12 190.627C531.053 190.68 529 190.72 526.933 190.867C527.067 189.867 527.187 188.867 527.32 187.853C522.667 187 518.253 185.8 513.653 187.627C507.96 189.88 503.013 194.68 500.027 199.973C496.493 206.293 498.507 214.307 499.587 221.093C496.293 213.707 495.227 205.16 499.547 197.947C503.72 191.307 510.253 185.44 518.453 185.053Z" fill="#0233FC"/>
<path d="M527.32 187.854C527.187 188.867 527.067 189.867 526.933 190.867C522.693 193.04 518.147 195.36 517.667 200.694C517.373 205.814 522.013 210.254 525.08 213.88C519.08 215.974 513.707 214.6 507.667 213.88C502.973 214.414 501.12 217.72 499.92 221.894L499.587 221.094C498.507 214.307 496.493 206.293 500.027 199.973C503.013 194.68 507.96 189.88 513.653 187.627C518.253 185.8 522.667 187 527.32 187.854Z" fill="#177F38"/>
<path d="M526.933 190.866C529 190.72 531.053 190.68 533.12 190.626C540.12 196.786 544.667 206.213 542.093 215.6C541.933 211.786 541.44 208 540.547 204.28C535.813 208.293 530.987 211.786 525.08 213.88C522.013 210.253 517.373 205.813 517.667 200.693C518.147 195.36 522.693 193.04 526.933 190.866Z" fill="#A0F5FB"/>
<path d="M282.64 195.147C278.84 196.053 275.08 197.107 271.28 198.027L270.12 198.32C267.12 199.173 263.627 199.947 261.827 202.773C259.893 205.653 260.133 209.933 259.853 213.307C262.48 213.333 265.107 213.36 267.733 213.387C268.827 215.773 270.253 218.267 270.747 220.853C270.84 223.2 270.2 225.627 269.8 227.933C266.907 225.333 264.067 222.68 261.267 220C260.067 220.68 258.867 221.36 257.653 222.04C254.68 215.707 253.653 208.52 257.24 202.187C260.92 192.907 274.68 190.773 282.64 195.147Z" fill="#F9C002"/>
<path d="M282.64 195.146C288.733 198.573 291.84 205.493 291.053 212.386C290.093 215.68 288.987 218.933 287.787 222.146C284.28 228.666 277.427 231.36 270.253 230.813C264.293 231.106 260.747 226.4 257.653 222.04C258.867 221.36 260.067 220.68 261.267 220C264.067 222.68 266.907 225.333 269.8 227.933C270.2 225.626 270.84 223.2 270.747 220.853C270.253 218.266 268.827 215.773 267.733 213.386C268.96 213.4 270.173 213.426 271.387 213.44L272.573 213.453C277.373 213.72 281.36 213.453 285.427 210.666C285.747 209.24 286.027 207.8 286.293 206.346C284.387 204.226 282.4 201.733 279.987 200.173C277.4 198.493 274.267 198.36 271.28 198.026C275.08 197.106 278.84 196.053 282.64 195.146Z" fill="#F4E204"/>
<path d="M270.12 198.32C269.293 203.533 270.16 208.386 271.387 213.44C270.173 213.426 268.96 213.4 267.733 213.386C265.107 213.36 262.48 213.333 259.853 213.306C260.133 209.933 259.893 205.653 261.827 202.773C263.627 199.946 267.12 199.173 270.12 198.32Z" fill="#088155"/>
<path d="M270.12 198.32L271.28 198.027C274.267 198.36 277.4 198.494 279.987 200.174C282.4 201.734 284.387 204.227 286.293 206.347C282.04 209.334 277.533 211.84 272.573 213.454L271.387 213.44C270.16 208.387 269.293 203.534 270.12 198.32Z" fill="#A0F5FB"/>
<path d="M22.5199 204.16C29.9999 202.28 37.3066 207.387 42.7733 211.92C38.0533 212.133 31.8399 211.467 27.6666 213.973C24.6533 215.707 24.6799 219.6 25.6666 222.507C26.8666 224.667 29.5333 226.093 31.4933 227.533C32.32 229.093 33.1466 230.68 33.9466 232.253C30.3466 233.64 26.24 235.72 22.3466 235.653C17.1066 235.107 11.9733 232.973 6.85328 231.707C6.43995 226.693 6.07995 221.013 8.34662 216.373C10.9999 210.72 16.5333 205.907 22.5199 204.16Z" fill="#088155"/>
<path d="M540.547 204.28C541.44 208 541.933 211.786 542.093 215.6C539.96 226.813 528.493 234.986 517.213 233.466C510.173 233 504.653 226.48 499.92 221.893C501.12 217.72 502.973 214.413 507.667 213.88C513.707 214.6 519.08 215.973 525.08 213.88C530.987 211.786 535.813 208.293 540.547 204.28Z" fill="#FAEA4B"/>
<path d="M286.293 206.347C286.027 207.8 285.747 209.24 285.427 210.667C281.36 213.453 277.373 213.72 272.573 213.453C277.533 211.84 282.04 209.333 286.293 206.347Z" fill="white"/>
<path d="M42.7733 211.92C47.8266 216.707 48.8266 221.827 48.3333 228.6C42.68 227.333 37.2666 226.413 31.4933 227.533C29.5333 226.093 26.8666 224.667 25.6666 222.507C24.68 219.6 24.6533 215.707 27.6666 213.973C31.84 211.467 38.0533 212.133 42.7733 211.92Z" fill="#A0F5FB"/>
<path d="M291.053 212.387C290.96 215.987 289.587 219.093 287.787 222.147C288.987 218.933 290.093 215.68 291.053 212.387Z" fill="#FAEA4B"/>
<path d="M48.3333 228.6C47.3199 235.587 44.2933 241.88 37.9599 245.467C26.4933 252.573 9.7866 244.547 6.85327 231.707C11.9733 232.973 17.1066 235.107 22.3466 235.653C26.2399 235.72 30.3466 233.64 33.9466 232.253C33.1466 230.68 32.3199 229.093 31.4933 227.533C37.2666 226.413 42.6799 227.333 48.3333 228.6Z" fill="#FAEA4B"/>
<path d="M344.493 268.107C349.88 271.72 354.627 276.427 360.2 279.613C361.24 280.147 362.28 280.667 363.347 281.173C361.027 282.813 358.44 284.467 355.72 285.307C348.827 282.973 342.64 278.667 335.84 275.96C320.867 269.773 304.92 263.56 288.787 261.48C274.573 260.787 258.867 260.787 244.68 261.68C255.187 259.52 265.053 260.56 275.667 260.333C283.587 260.213 291.387 260.413 299.107 262.413C313.267 266.08 327.373 270.72 340.573 277.067C344.773 279.04 348.813 281.507 353.16 283.12C355.6 284.173 357.827 283.04 360.28 282.507C351.173 272.36 338.613 265.053 326.373 259.293C314 253.933 300.84 248.827 287.48 246.693C307.8 249.973 327.28 256.667 344.493 268.107Z" fill="#F4E204"/>
<path d="M258.32 246.414C268.013 246.32 277.813 245.974 287.48 246.694C300.84 248.827 314 253.934 326.373 259.294C338.613 265.054 351.173 272.36 360.28 282.507C357.827 283.04 355.6 284.174 353.16 283.12C348.813 281.507 344.773 279.04 340.573 277.067C327.373 270.72 313.267 266.08 299.107 262.414C291.387 260.414 283.587 260.214 275.667 260.334C265.053 260.56 255.187 259.52 244.68 261.68C231.467 264.32 218.493 266.8 206.12 272.387C199.88 274.774 194.373 278.254 188.627 281.587C185.28 281.867 181.84 281.907 178.467 281.96C179.147 280.44 179.813 278.92 180.547 277.44C187.293 271.947 194 266.627 201.84 262.774C212.347 257.147 223.373 254.04 234.613 250.28C242.64 248.454 250.16 246.36 258.32 246.414Z" fill="#F4E204"/>
<path d="M234.613 250.28C223.373 254.04 212.347 257.146 201.84 262.773C194 266.626 187.293 271.946 180.547 277.44C179.76 277.973 178.973 278.493 178.173 279.013L177.027 276.706C185.04 272.973 191.027 266.653 198.84 262.6C210.267 256.613 221.6 251.506 234.613 250.28Z" fill="#647CC0"/>
<path d="M244.68 261.68C258.867 260.786 274.573 260.786 288.787 261.48C304.92 263.56 320.867 269.773 335.84 275.96C342.64 278.666 348.827 282.973 355.72 285.306C358.44 284.466 361.027 282.813 363.347 281.173C366.32 278.96 369.373 277 372.653 275.266C365.96 290.653 357.08 304.506 347.227 318.013C342.28 311.8 338.24 305.426 332.36 299.986C319.64 288 303.013 281.226 286.28 277.013C261.987 270.933 234.6 276.573 213.013 288.786C200.707 295.773 191.667 306.386 185.28 318.906C183.347 315.946 181.36 312.986 179.6 309.92C175.427 301.733 171.453 293.466 167.227 285.306C165.28 281.573 163.6 277.733 162.293 273.72C166.933 275.586 171.12 277.986 175.173 280.893C178.933 284.013 184.467 283.6 188.627 281.586C194.373 278.253 199.88 274.773 206.12 272.386C218.493 266.8 231.467 264.32 244.68 261.68Z" fill="#0233FC"/>
<path d="M286.28 277.013C303.013 281.227 319.64 288 332.36 299.987C338.24 305.427 342.28 311.8 347.227 318.013C346.747 318.627 346.28 319.253 345.8 319.867C339.187 308.52 330.48 298.64 319.187 291.76C307.56 284.76 294.427 280.027 281.04 277.84C257.08 274.8 232.52 278.787 211.693 291.347C206.387 294.747 201.333 298.773 197.16 303.507C192.053 309.227 188.627 316.627 185.76 323.693C183.92 319.013 181.707 314.48 179.6 309.92C181.36 312.987 183.347 315.947 185.28 318.907C191.667 306.387 200.707 295.773 213.013 288.787C234.6 276.573 261.987 270.933 286.28 277.013Z" fill="#647CC0"/>
<path d="M178.173 279.013C178.973 278.493 179.76 277.973 180.547 277.44C179.813 278.92 179.147 280.44 178.467 281.96C181.84 281.907 185.28 281.867 188.627 281.587C184.467 283.6 178.933 284.013 175.173 280.893C176.173 280.267 177.173 279.64 178.173 279.013Z" fill="#F4E204"/>
<path d="M281.04 277.84C294.427 280.027 307.56 284.76 319.187 291.76C330.48 298.64 339.187 308.52 345.8 319.867C346.467 321.027 347.08 322.227 347.627 323.44C349.987 334.48 351.827 347.92 346.867 358.48C343.547 365.773 335.28 367.533 334.187 375.16C332.107 387.053 328.493 398.453 325.013 409.987C317.92 425.813 308.187 441.013 292.44 449.373C284.133 453.893 275.507 454 266.293 453.667C256.307 453.453 246.347 449.107 238.507 443.08C220.987 428.773 209.8 408.547 204.013 386.907C202.307 380.88 202.04 374.267 199.733 368.467C197.44 365.92 194.213 364.227 191.653 361.933C187.707 358.573 186.053 353.813 185.547 348.773C184.787 340.493 185.293 331.987 185.76 323.693C188.627 316.627 192.053 309.227 197.16 303.507C201.333 298.773 206.387 294.747 211.693 291.347C232.52 278.787 257.08 274.8 281.04 277.84Z" fill="#F9C002"/>
<path d="M302.36 317C310.08 316.693 316.493 319.906 322.68 324.16C321.72 323.92 320.773 323.693 319.813 323.466C311.56 321.266 304.813 318.213 296.027 320.746C290.427 322.4 287.253 326.306 283.36 330.306L282.587 330.48C284.16 322.066 294.427 316.773 302.36 317Z" fill="white"/>
<path d="M237.893 320.414C244.347 321.68 250.44 323.24 253.093 329.974L252.147 329.574C246.853 325.467 241.48 322.187 234.68 321.334C230.867 320.654 227.013 320.347 223.16 320C228.053 319.947 233.04 319.8 237.893 320.414Z" fill="white"/>
<path d="M296.027 320.747C304.813 318.213 311.56 321.267 319.813 323.467C315.387 326 312.48 329.28 309.427 333.253C307.52 335.907 304.587 335.347 301.693 335.893C302.067 333.293 302.44 330.693 302.84 328.107C296.147 327.813 289.933 329.427 283.36 330.307C287.253 326.307 290.427 322.4 296.027 320.747Z" fill="#0233FC"/>
<path d="M234.68 321.333C241.48 322.187 246.853 325.467 252.147 329.573L250.533 331.467L249.507 331.013C246.907 329.947 242.76 326.547 239.96 328C238.187 331.773 237.973 336.573 232.88 337.227C226.627 338.107 222.6 334.467 218.453 330.44C220.187 329.227 221.933 328.04 223.68 326.867C220.573 326.173 217.48 325.453 214.44 324.507C220.84 320.453 227.467 320.787 234.68 321.333Z" fill="#0233FC"/>
<path d="M214.44 324.507C217.48 325.454 220.573 326.173 223.68 326.867C221.933 328.04 220.187 329.227 218.453 330.44C217.88 329.853 217.32 329.267 216.773 328.667C215.973 327.293 215.2 325.894 214.44 324.507Z" fill="white"/>
<path d="M322.68 324.16C323.36 324.507 324.053 324.84 324.733 325.173C320.467 326.987 316.16 327.84 313.2 331.653C311.107 333.733 309.56 336.68 306.227 336.573C300.547 337.027 297.333 333.613 292.96 330.72C289.333 331.573 285.707 332.44 282.093 333.333C282.24 332.387 282.413 331.427 282.587 330.48L283.36 330.307C289.933 329.427 296.147 327.813 302.84 328.107C302.44 330.693 302.067 333.293 301.693 335.893C304.587 335.347 307.52 335.907 309.427 333.253C312.48 329.28 315.387 326 319.813 323.467C320.773 323.693 321.72 323.92 322.68 324.16Z" fill="#0233FC"/>
<path d="M347.627 323.44C353.933 336.693 351.76 353.933 344.493 366.427C348.213 369.88 352.107 373.093 356.307 375.96C365.72 382.44 374.733 389.48 383.56 396.72C387.827 400.333 392.28 404.227 395.533 408.8C397.6 411.56 398.693 415.827 397.307 419.08C395.6 421.987 392.867 424.467 390.533 426.88C393.947 429.867 397.427 432.76 401.013 435.507C400.653 438.4 400.547 441.56 399.493 444.293C397.68 448 393.933 451 390.96 453.827C392.253 456.093 393.68 458.427 394.533 460.893C391.56 471.627 382.813 476.68 372.56 479.173C372.547 487.347 372.573 494.88 368.573 502.28C361.493 500 355.68 495.613 348.853 492.76C348.08 499.027 348.907 509.947 342.213 513.213C336.893 514.28 330.613 511.24 325.653 509.4C324.347 513.987 323.4 519.2 320.92 523.307C313.267 526.773 307.187 520.92 300.947 517.333C298.507 521.307 296.347 525.56 293.547 529.293C291.267 532.4 286.547 533.947 283.027 532.04C278.92 530.04 275.533 525.987 272.36 522.76C267.44 526.493 260.96 533.333 254.467 533.12C248.4 531.613 246.453 523.253 244.253 518.267C239.32 520.96 234.28 524.627 228.827 526.04C226.053 526.68 222.08 526.373 221.013 523.213C219.307 519.24 218.76 514.64 217.933 510.4C212.32 512.533 204.027 517.013 198.16 514.16C193.64 511.56 195.067 502.933 194.467 498.56C188.587 499.32 180.16 502.093 174.613 499.28C169.493 495.653 171.187 485.787 171.04 480.267C165.413 479.627 159.467 479.067 154.08 477.213C151.28 476.133 148.72 474.573 148.293 471.307C147.267 465.627 151.947 459.867 154.8 455.28C149.32 452.4 143.173 449.987 138.32 446.133C135.947 444.027 133.773 441.693 135.44 438.373C138.213 434.24 144.053 431.92 148.347 429.653C145.16 427.013 141.187 424.173 139.187 420.52C137.867 416.507 141.72 412.027 144.2 409.227C155.24 397.413 169.507 387.627 182.613 378.24C186.413 375.493 190.413 373.107 194.56 370.947C194.653 373.28 194.707 375.613 194.8 377.947C181.907 386.36 170.04 396.067 158.693 406.427C155.013 409.867 150.133 413.333 147.88 417.893C151.507 423.547 158.853 426.907 163.907 431.36C157 434.653 147.04 435.653 142.307 441.867C145.8 444.853 149.053 447.76 153.507 449.227C158.413 450.867 163.133 452.48 167.493 455.333C163.573 457.893 158.48 460 155.453 463.613C154.893 465.733 154.76 468.027 154.507 470.2C162.667 475.72 170.187 472.427 179.387 473.187C179.747 480.08 177.053 486.373 177.32 493.28C179.64 493.853 182.293 494.84 184.707 494.627C191.48 493.573 194.693 487.187 201.933 488.4C202.053 494.493 201.547 500.547 201.48 506.64C203.867 507.28 206.533 508.453 209 507.84C213.08 506.653 216.413 503.84 219.933 501.573C221.2 501.76 222.48 501.933 223.747 502.133C224.187 506.987 224.267 511.907 224.92 516.733C227.027 520.133 230.827 519.467 233.827 517.773C238.027 515.093 241.787 511.8 246.04 509.187C247.253 509.693 248.467 510.187 249.68 510.68C250.56 516.347 251.68 521.733 254.12 526.96C257.16 526.293 260.533 526 262.96 523.853C266.8 520.573 269.64 515.893 272.547 511.813C275.573 516.147 278.427 521.16 282.36 524.707C284.013 526.08 286.84 527.64 288.6 525.587C293.48 521.28 295.347 513.333 296.987 507.293C304.48 509.453 308.96 516.2 315.84 520.653C319.373 513.76 319.6 506.547 320.453 499.013C327.547 502.613 332.613 507.493 341.133 506.987C342.747 499.987 341.573 493.413 341.227 486.373C349.76 486.707 357.013 489.813 364.253 494.093C365.307 485.053 364.76 479.133 361.253 470.747C365.987 470.773 370.973 471.293 375.64 470.453C380.067 468.853 382.227 465.453 384.773 461.787C380.347 459.107 376.333 456.16 372.76 452.387C378.467 449.453 384.92 447.907 390.333 444.547C392.627 443.173 393.533 441.04 394.627 438.733C388.28 435.173 381.76 432.04 375.693 428C381.24 423.213 387.44 420.587 391.573 414.227C384.04 406.173 375.64 398.92 367.2 391.867C359.587 385.707 351.733 379.307 343.173 374.547C343.053 372.267 342.827 370 342.587 367.733C340.667 368.813 336.813 369.413 336.32 371.907C334.44 378.013 333.76 384.48 332.133 390.667C330.52 397.387 328.027 403.773 325.013 409.987C328.493 398.453 332.107 387.053 334.187 375.16C335.28 367.533 343.547 365.773 346.867 358.48C351.827 347.92 349.987 334.48 347.627 323.44Z" fill="#FAEA4B"/>
<path d="M239.96 328C239.813 328.947 239.693 329.907 239.573 330.853C238.693 333 237.747 335.6 236 337.2C232.267 339.133 227.227 338.693 223.547 336.8C220.133 335.053 218.64 331.813 216.773 328.667C217.32 329.267 217.88 329.853 218.453 330.44C222.6 334.467 226.627 338.107 232.88 337.227C237.973 336.573 238.187 331.773 239.96 328Z" fill="#F9C002"/>
<path d="M239.96 328C242.76 326.546 246.907 329.946 249.507 331.013C246.2 330.933 242.893 330.906 239.573 330.853C239.693 329.906 239.813 328.946 239.96 328Z" fill="white"/>
<path d="M252.147 329.573L253.093 329.973L253.547 331.96C252.573 332.24 251.573 332.08 250.533 331.467L252.147 329.573Z" fill="#177F38"/>
<path d="M258.8 362.28C260.933 360.5 266.436 364.095 271.373 363.8C275.508 363.553 279.751 360.402 282.5 363.5C284.574 365.837 284.083 368.789 281.827 369.587C275 372 267.2 373.334 260.933 369.947C258.133 368.76 256.414 364.271 258.8 362.28Z" fill="white"/>
<path d="M343.173 374.547C351.733 379.307 359.587 385.707 367.2 391.867C375.64 398.92 384.04 406.174 391.573 414.227C387.44 420.587 381.24 423.214 375.693 428C381.76 432.04 388.28 435.174 394.627 438.734C393.533 441.04 392.627 443.174 390.333 444.547C384.92 447.907 378.467 449.454 372.76 452.387C376.333 456.16 380.347 459.107 384.773 461.787C382.227 465.454 380.067 468.854 375.64 470.454C370.973 471.294 365.987 470.774 361.253 470.747C364.76 479.134 365.307 485.054 364.253 494.094C357.013 489.814 349.76 486.707 341.227 486.374C341.573 493.414 342.747 499.987 341.133 506.987C332.613 507.494 327.547 502.614 320.453 499.014C319.6 506.547 319.373 513.76 315.84 520.654C308.96 516.2 304.48 509.454 296.987 507.294C295.347 513.334 293.48 521.28 288.6 525.587C286.84 527.64 284.013 526.08 282.36 524.707C278.427 521.16 275.573 516.147 272.547 511.814C269.64 515.894 266.8 520.574 262.96 523.854C260.533 526 257.16 526.294 254.12 526.96C251.68 521.734 250.56 516.347 249.68 510.68C248.467 510.187 247.253 509.694 246.04 509.187C241.787 511.8 238.027 515.094 233.827 517.774C230.827 519.467 227.027 520.134 224.92 516.734C224.547 511.2 224.773 505.64 224.573 500.094C223.013 500.56 221.467 501.027 219.933 501.574C216.413 503.84 213.08 506.654 209 507.84C206.533 508.454 203.867 507.28 201.48 506.64C201.547 500.547 202.053 494.494 201.933 488.4C194.693 487.187 191.48 493.574 184.707 494.627C182.293 494.84 179.64 493.854 177.32 493.28C177.053 486.374 179.747 480.08 179.387 473.187C170.187 472.427 162.667 475.72 154.507 470.2C154.76 468.027 154.893 465.734 155.453 463.614C158.48 460 163.573 457.894 167.493 455.334C163.133 452.48 158.413 450.867 153.507 449.227C149.053 447.76 145.8 444.854 142.307 441.867C147.04 435.654 157 434.654 163.907 431.36C158.853 426.907 151.507 423.547 147.88 417.894C150.133 413.334 155.013 409.867 158.693 406.427C170.04 396.067 181.907 386.36 194.8 377.947C196.08 398.96 204.427 419.6 217.72 435.894C226.52 446.094 237.4 456.014 250.12 460.934C259.693 464.854 270.827 465.094 280.933 463.68C294.067 460.88 306.213 452.747 314.68 442.44C329.88 422.614 339.253 399.147 343.173 374.547Z" fill="#0233FC"/>
<path d="M232.6 387C240.773 395.64 249.387 402.934 261.333 405.534C273.133 408.574 285.053 405.28 294.907 398.56C299.853 395.107 303.987 390.72 308.853 387.147C304.387 396.974 296.373 404.28 286.867 409.12C279.213 413.08 269.293 412.814 261 411.467C246.84 408.467 237.52 397.654 231.027 385.374C231.547 385.92 232.08 386.467 232.6 387Z" fill="white"/>
<path d="M200.053 499.254C202.067 498.534 202.013 505.347 200.067 504.707C198.773 503.667 198.76 500.294 200.053 499.254Z" fill="white"/>
<path d="M224.573 500.093C224.773 505.64 224.547 511.2 224.92 516.733C224.267 511.907 224.187 506.987 223.747 502.133C222.48 501.933 221.2 501.76 219.933 501.573C221.467 501.027 223.013 500.56 224.573 500.093Z" fill="#A0F5FB"/>
<ellipse cx="299" cy="330" rx="4" ry="3" fill="#449DD9"/>
</g>
<defs>
<clipPath id="clip0_127_3">
<rect width="550" height="533" fill="white"/>
</clipPath>
</defs>
</svg>
